<svg id="Ebene_1" data-name="Ebene 1" xmlns="http://www.w3.org/2000/svg" viewBox="0 0 510.24 510.24"><defs><style>.cls-1{fill:#de6411;}.cls-2{fill:#ec0;}.cls-3{fill:#f6a723;}.cls-4{fill:#d4712f;}.cls-5{fill:#43434a;}</style></defs><title>Sonne_Icon</title><path class="cls-1" d="M394.14,265.6c1.67-17.45,6.91-82.56-7.6-87.84s-52.4,48-62.29,62.4a184,184,0,0,1,69.89,25.44Z" transform="translate(-42.85 -165.99)"/><path class="cls-1" d="M253,166.07c-15.28,2.7-21.42,68.32-22.76,85.44a182.48,182.48,0,0,1,73.3-13.07C296.36,222.68,268.25,163.38,253,166.07Z" transform="translate(-42.85 -165.99)"/><path class="cls-1" d="M211.58,260.21c-13.94-9.95-68.18-47.46-80.07-37.48s15.49,69.6,23,85.23A182.31,182.31,0,0,1,211.58,260.21Z" transform="translate(-42.85 -165.99)"/><path class="cls-1" d="M137,507.6c-10.06,14.1-47.36,68.1-37.4,80s69.45-15.42,85.17-22.92A182.57,182.57,0,0,1,137,507.6Z" transform="translate(-42.85 -165.99)"/><path class="cls-1" d="M201.8,576.54c-1.67,17.36-6.94,82.62,7.59,87.91s52.49-48.14,62.33-62.46a180.89,180.89,0,0,1-69.92-25.45Z" transform="translate(-42.85 -165.99)"/><path class="cls-1" d="M292.42,603.83c7.22,15.84,35.28,75,50.51,72.3s21.39-68,22.75-85.29A182.57,182.57,0,0,1,292.42,603.83Z" transform="translate(-42.85 -165.99)"/><path class="cls-1" d="M553,376.14c-2.7-15.29-68.32-21.42-85.44-22.76a182.48,182.48,0,0,1,13.07,73.3C496.39,419.5,555.68,391.39,553,376.14Z" transform="translate(-42.85 -165.99)"/><path class="cls-1" d="M458.86,334.72c9.95-14,47.46-68.18,37.48-80.08s-69.6,15.5-85.23,22.95A182.45,182.45,0,0,1,458.86,334.72Z" transform="translate(-42.85 -165.99)"/><path class="cls-2" d="M458.86,334.72a182.64,182.64,0,0,0-332.69,23.86c-.18.49-.33,1-.5,1.5a55.44,55.44,0,1,1,3.43,110,56.66,56.66,0,0,1-7.5-1,183.87,183.87,0,0,0,63.16,95.51,185.59,185.59,0,0,0,50.68,28.26A183.23,183.23,0,0,0,271.72,602a181.2,181.2,0,0,0,94-11.15,184,184,0,0,0,36.45-19.54,54,54,0,0,1-6.52-3.93,55.42,55.42,0,1,1,73.46-82c.22-.59.47-1.16.69-1.76a182.45,182.45,0,0,0-2.2-130.25A181.73,181.73,0,0,0,458.86,334.72Z" transform="translate(-42.85 -165.99)"/><path class="cls-1" d="M402.13,571.3a184.34,184.34,0,0,1-17.66,10.79c14.11,10.06,68.09,47.35,79.95,37.39s-15.6-69.86-23-85.34A180.82,180.82,0,0,1,402.13,571.3Z" transform="translate(-42.85 -165.99)"/><path class="cls-1" d="M478.91,447.39a183.75,183.75,0,0,1-9.15,36.24c-.22.6-.47,1.17-.69,1.76a182.53,182.53,0,0,1-15.78,31.87c17.2,1.66,82.72,7,88-7.59S493.29,457.28,478.91,447.39Z" transform="translate(-42.85 -165.99)"/><path class="cls-3" d="M446.12,469.58a55.51,55.51,0,0,0-44,101.72,185.3,185.3,0,0,0,66.94-85.91A55.13,55.13,0,0,0,446.12,469.58Z" transform="translate(-42.85 -165.99)"/><path class="cls-4" d="M129.1,470.12h0a56.66,56.66,0,0,1-7.5-1A56.66,56.66,0,0,0,129.1,470.12Z" transform="translate(-42.85 -165.99)"/><path class="cls-1" d="M115.37,415.5c-15.68,7.14-75.13,35.3-72.43,50.57s67.94,21.38,85.28,22.75a183.55,183.55,0,0,1-6.62-19.69A181,181,0,0,1,115.37,415.5Z" transform="translate(-42.85 -165.99)"/><path class="cls-1" d="M126.17,358.58a183.65,183.65,0,0,1,16.29-33.65C125,323.26,59.9,318,54.62,332.53s48.34,52.63,62.55,62.39a181.71,181.71,0,0,1,8.5-34.84C125.84,359.58,126,359.07,126.17,358.58Z" transform="translate(-42.85 -165.99)"/><path class="cls-3" d="M152.84,362.83a55.3,55.3,0,0,0-18.51-3.28h0a55.35,55.35,0,0,0-8.66.53,181.71,181.71,0,0,0-8.5,34.84,183.84,183.84,0,0,0-1.8,20.58,181,181,0,0,0,6.23,53.63,56.66,56.66,0,0,0,7.5,1,55.4,55.4,0,0,0,23.74-107.29Z" transform="translate(-42.85 -165.99)"/><path class="cls-5" d="M346.51,475.43a8.2,8.2,0,0,0-8.84,13.3c-9.14,15.19-33.22,44.86-75.95,29.41-43-15.55-42.06-54.26-39.23-71.66a8.17,8.17,0,0,0,6.3-5.17,8.27,8.27,0,1,0-15.55-5.66,8.15,8.15,0,0,0,3.62,9.79c-2.87,18.89-3.66,61.38,42.87,78.19a72.82,72.82,0,0,0,24.84,4.64c31.37,0,50.24-23.89,58.25-37a8.16,8.16,0,0,0,8.64-5.24A8.27,8.27,0,0,0,346.51,475.43Z" transform="translate(-42.85 -165.99)"/><path class="cls-5" d="M237.1,346.82c-12.58-4.55-21.07-1.25-26.35,3L204,344.7a2.61,2.61,0,0,0-3.14,4.17l6.12,4.6a24,24,0,0,0-3.26,4.92,2.61,2.61,0,0,0,4.77,2.11c.28-.66,7.26-15.87,26.84-8.77s15.11,23.28,14.91,24a2.61,2.61,0,0,0,1.8,3.22,2.57,2.57,0,0,0,.72.11,2.6,2.6,0,0,0,2.5-1.88C255.31,376.94,261.25,355.56,237.1,346.82Z" transform="translate(-42.85 -165.99)"/><path class="cls-5" d="M417.14,422.27l-8.15-.43c-1.34-6.63-5.74-14.57-18.29-19.12-24.13-8.74-33.3,11.37-33.4,11.57a2.62,2.62,0,0,0,4.79,2.11c.28-.65,7.23-15.89,26.83-8.77,11.16,4,14.47,11.09,15.25,16.51,0,0,0,0,0,.06s.05.07.05.12a19.8,19.8,0,0,1-.36,7.29,2.63,2.63,0,0,0,1.8,3.22,2.5,2.5,0,0,0,.72.1,2.59,2.59,0,0,0,2.5-1.87,24.66,24.66,0,0,0,.67-6l7.34.39H417a2.61,2.61,0,0,0,.14-5.22Z" transform="translate(-42.85 -165.99)"/></svg>