<svg id="Ebene_1" data-name="Ebene 1" xmlns="http://www.w3.org/2000/svg" viewBox="0 0 510.24 510.24"><defs><style>.cls-1{fill:#00a9d4;}.cls-2{fill:#de6411;}.cls-3{fill:#ec0;}.cls-4{fill:#f6a723;}.cls-5{fill:#43434a;}</style></defs><title>Sonne</title><path class="cls-1" d="M298,166C157.07,166,42.85,280.21,42.85,421.1S157.07,676.22,298,676.22,553.08,562,553.08,421.1,438.86,166,298,166ZM501.06,495c-4.42,12.16-59.1,7.72-73.46,6.33a153.2,153.2,0,0,1-9.9,14.09c6.17,12.93,29.11,62.9,19.19,71.23s-54.95-22.81-66.73-31.21a152.82,152.82,0,0,1-15.68,7.3c-1.14,14.46-6.26,69-19,71.19s-36.14-47.12-42.16-60.34a153.14,153.14,0,0,1-17.28-1.54c-8.21,11.95-39.88,56.55-52,52.13s-7.73-58.88-6.33-73.37a150.32,150.32,0,0,1-14.22-9.93c-13.12,6.26-62.79,29-71.09,19.13s22.82-55,31.21-66.73a153.89,153.89,0,0,1-7.31-15.68c-14.48-1.14-68.94-6.27-71.18-19s47.37-36.25,60.45-42.21a155.85,155.85,0,0,1,1.5-17.17c-11.85-8.15-56.63-39.91-52.2-52.07s58.75-7.74,73.31-6.34a148.88,148.88,0,0,1,10-14.16C172,313.63,149.14,263.85,159,255.54s55.19,23,66.83,31.28a152.88,152.88,0,0,1,15.57-7.26c1.12-14.29,6.24-69.06,19-71.31s36.2,47.25,42.19,60.4a150.6,150.6,0,0,1,17.28,1.44c8.26-12,39.86-56.5,52-52.08s7.74,58.74,6.34,73.31a148.88,148.88,0,0,1,14.16,10c13.05-6.22,62.83-29.06,71.14-19.15s-23,55.19-31.28,66.83a152.88,152.88,0,0,1,7.26,15.57c14.29,1.12,69.06,6.24,71.3,19s-47.24,36.19-60.4,42.19A150.58,150.58,0,0,1,449,443C461,451.3,505.48,482.9,501.06,495Z" transform="translate(-42.85 -165.99)"/><path class="cls-1" d="M359.79,499.28c0-.33.09-.66.14-1C359.88,498.62,359.83,499,359.79,499.28Z" transform="translate(-42.85 -165.99)"/><path class="cls-1" d="M359.58,501.25c0-.3.05-.6.09-.9Z" transform="translate(-42.85 -165.99)"/><path class="cls-1" d="M360.48,495.28c.08-.39.18-.78.27-1.16C360.66,494.5,360.56,494.89,360.48,495.28Z" transform="translate(-42.85 -165.99)"/><path class="cls-1" d="M361.54,491.26c.21-.67.43-1.34.68-2C362,489.92,361.75,490.59,361.54,491.26Z" transform="translate(-42.85 -165.99)"/><path class="cls-1" d="M360.09,497.29c.06-.36.13-.72.2-1.08C360.22,496.57,360.15,496.93,360.09,497.29Z" transform="translate(-42.85 -165.99)"/><path class="cls-1" d="M384.9,546.46c-.5-.25-1-.51-1.46-.78C383.92,546,384.4,546.21,384.9,546.46Z" transform="translate(-42.85 -165.99)"/><path class="cls-1" d="M154.16,370.17a47.27,47.27,0,0,1,7.15-.44A47.27,47.27,0,0,0,154.16,370.17Z" transform="translate(-42.85 -165.99)"/><path class="cls-1" d="M359.46,503.17c0-.26,0-.51,0-.77C359.48,502.66,359.47,502.91,359.46,503.17Z" transform="translate(-42.85 -165.99)"/><path class="cls-1" d="M359.42,505v0Z" transform="translate(-42.85 -165.99)"/><path class="cls-1" d="M361,493.27c.12-.44.25-.88.38-1.32C361.21,492.39,361.08,492.83,361,493.27Z" transform="translate(-42.85 -165.99)"/><path class="cls-1" d="M439.39,473.26c.47.49.94,1,1.38,1.49C440.33,474.24,439.86,473.74,439.39,473.26Z" transform="translate(-42.85 -165.99)"/><path class="cls-1" d="M421.62,461.56c.81.29,1.6.62,2.39,1C423.22,462.18,422.43,461.85,421.62,461.56Z" transform="translate(-42.85 -165.99)"/><path class="cls-1" d="M425,463l1,.48Z" transform="translate(-42.85 -165.99)"/><path class="cls-2" d="M378.23,291.32c1.4-14.57,5.77-68.91-6.34-73.31s-43.73,40.07-52,52.08a153.23,153.23,0,0,1,58.33,21.23Z" transform="translate(-42.85 -165.99)"/><path class="cls-2" d="M302.62,268.65c-6-13.15-29.46-62.64-42.19-60.4s-17.87,57-19,71.31A152.32,152.32,0,0,1,302.62,268.65Z" transform="translate(-42.85 -165.99)"/><path class="cls-2" d="M225.87,286.82C214.23,278.51,169,247.21,159,255.54s12.93,58.09,19.15,71.14A152.25,152.25,0,0,1,225.87,286.82Z" transform="translate(-42.85 -165.99)"/><path class="cls-2" d="M163.61,493.3c-8.39,11.76-39.52,56.83-31.21,66.73s58-12.87,71.09-19.13A152.29,152.29,0,0,1,163.61,493.3Z" transform="translate(-42.85 -165.99)"/><path class="cls-2" d="M217.71,550.83c-1.4,14.49-5.79,69,6.33,73.37s43.81-40.18,52-52.13a151.06,151.06,0,0,1-58.35-21.24Z" transform="translate(-42.85 -165.99)"/><path class="cls-2" d="M293.34,573.61c6,13.22,29.44,62.58,42.16,60.34s17.84-56.73,19-71.19A152.46,152.46,0,0,1,293.34,573.61Z" transform="translate(-42.85 -165.99)"/><path class="cls-2" d="M450.41,425.76c13.16-6,62.65-29.46,60.4-42.19s-57-17.87-71.3-19A152.11,152.11,0,0,1,450.41,425.76Z" transform="translate(-42.85 -165.99)"/><path class="cls-2" d="M432.25,349c8.31-11.64,39.61-56.91,31.28-66.83s-58.09,12.93-71.14,19.15A152,152,0,0,1,432.25,349Z" transform="translate(-42.85 -165.99)"/><path class="cls-3" d="M439.51,364.58a153.4,153.4,0,0,0-47.12-63.25,148.88,148.88,0,0,0-14.16-10,153.23,153.23,0,0,0-58.33-21.23,150.6,150.6,0,0,0-17.28-1.44,153.44,153.44,0,0,0-124.43,58,148.88,148.88,0,0,0-10,14.16,153.49,153.49,0,0,0-13.6,28.08c-.15.41-.27.83-.42,1.25a47.27,47.27,0,0,1,7.15-.44h.09A46.23,46.23,0,1,1,157,462a44.75,44.75,0,0,1-6.26-.83,153.26,153.26,0,0,0,52.72,79.72,150.32,150.32,0,0,0,14.22,9.93,152.94,152.94,0,0,0,167.19-4.37c-.5-.25-1-.51-1.46-.78a46.39,46.39,0,0,1-24-40.71v-.52c0-.43,0-.86,0-1.28,0-.26,0-.51,0-.77s.05-.77.08-1.15l.09-.9c0-.36.07-.71.12-1.07s.09-.66.14-1,.1-.66.16-1,.13-.72.2-1.08.12-.62.19-.93.18-.78.27-1.16l.21-.85c.12-.44.25-.88.38-1.32.07-.23.13-.46.2-.69.21-.67.43-1.34.68-2a46.34,46.34,0,0,1,59.4-27.7c.81.29,1.6.62,2.39,1l1,.45,1,.48a46,46,0,0,1,13.37,9.81c.47.48.94,1,1.38,1.49.19-.49.4-1,.58-1.46A153.49,153.49,0,0,0,449,443a150.58,150.58,0,0,0,1.43-17.28A152.11,152.11,0,0,0,439.51,364.58Zm-216.23,5.94a2.18,2.18,0,1,1-4-1.76,20.11,20.11,0,0,1,2.72-4.11l-5.1-3.84a2.16,2.16,0,0,1-.44-3,2.18,2.18,0,0,1,3.05-.44l5.65,4.25c4.4-3.52,11.48-6.27,22-2.48,20.15,7.3,15.2,25.14,15.15,25.32a2.19,2.19,0,0,1-2.09,1.57,2.15,2.15,0,0,1-.61-.09,2.18,2.18,0,0,1-1.49-2.69c.16-.58,3.8-14.13-12.45-20S223.52,370,223.28,370.52ZM342.61,475.29a6.82,6.82,0,0,1-7.21,4.38c-6.68,10.94-22.43,30.88-48.62,30.88a60.82,60.82,0,0,1-20.73-3.88c-38.83-14-38.17-49.49-35.77-65.25a6.81,6.81,0,0,1-3-8.18,6.91,6.91,0,1,1,13,4.73,6.77,6.77,0,0,1-5.26,4.31c-2.36,14.52-3.16,46.84,32.74,59.81,35.67,12.9,55.77-11.87,63.39-24.54a6.87,6.87,0,1,1,11.51-2.26Zm54.7-48.85h-.12l-6.12-.32a21,21,0,0,1-.56,5,2.17,2.17,0,0,1-2.08,1.57,2.1,2.1,0,0,1-.61-.09,2.19,2.19,0,0,1-1.5-2.69,16.29,16.29,0,0,0,.3-6.08s0-.07,0-.11,0,0,0,0c-.64-4.53-3.41-10.41-12.72-13.78-16.36-5.94-22.16,6.77-22.4,7.32a2.18,2.18,0,0,1-4-1.76c.08-.17,7.73-16.95,27.87-9.66,10.48,3.79,14.15,10.43,15.27,16l6.8.36a2.18,2.18,0,0,1-.12,4.36Z" transform="translate(-42.85 -165.99)"/><path class="cls-2" d="M384.9,546.46a153.1,153.1,0,0,1-14.74,9c11.78,8.4,56.83,39.52,66.73,31.21s-13-58.3-19.19-71.23A151.08,151.08,0,0,1,384.9,546.46Z" transform="translate(-42.85 -165.99)"/><path class="cls-2" d="M440.77,474.75a151.76,151.76,0,0,1-13.17,26.6c14.36,1.39,69,5.83,73.46-6.33S461,451.3,449,443a153.49,153.49,0,0,1-7.63,30.25C441.17,473.79,441,474.26,440.77,474.75Z" transform="translate(-42.85 -165.99)"/><path class="cls-4" d="M439.39,473.26A46,46,0,0,0,426,463.45l-1-.48-1-.45c-.79-.34-1.58-.67-2.39-1a46.34,46.34,0,0,0-59.4,27.7c-.25.66-.47,1.33-.68,2-.07.23-.13.46-.2.69-.13.44-.26.88-.38,1.32l-.21.85c-.09.38-.19.77-.27,1.16s-.13.62-.19.93-.14.72-.2,1.08-.11.66-.16,1-.1.67-.14,1-.09.71-.12,1.07-.06.6-.09.9-.06.77-.08,1.15,0,.51,0,.77c0,.42,0,.85,0,1.28V505a46.39,46.39,0,0,0,24,40.71c.48.27,1,.53,1.46.78a151.08,151.08,0,0,0,32.8-31,153.7,153.7,0,0,0,23.07-40.69C440.33,474.24,439.86,473.75,439.39,473.26Z" transform="translate(-42.85 -165.99)"/><path class="cls-2" d="M145.57,416.42c-13.08,6-62.7,29.47-60.45,42.21s56.7,17.85,71.18,19a152.58,152.58,0,0,1-5.53-16.44A151,151,0,0,1,145.57,416.42Z" transform="translate(-42.85 -165.99)"/><path class="cls-2" d="M154.58,368.92a153.49,153.49,0,0,1,13.6-28.08c-14.56-1.4-68.9-5.77-73.31,6.34s40.35,43.92,52.2,52.07a153.34,153.34,0,0,1,7.09-29.08C154.31,369.75,154.43,369.33,154.58,368.92Z" transform="translate(-42.85 -165.99)"/><path class="cls-4" d="M150.77,461.18A44.75,44.75,0,0,0,157,462a46.23,46.23,0,1,0,4.37-92.28h-.09a47.27,47.27,0,0,0-7.15.44,153.34,153.34,0,0,0-7.09,29.08,155.85,155.85,0,0,0-1.5,17.17A151,151,0,0,0,150.77,461.18Z" transform="translate(-42.85 -165.99)"/><path class="cls-5" d="M338.48,466.44a6.85,6.85,0,0,0-7.38,11.11c-7.62,12.67-27.72,37.44-63.39,24.54-35.9-13-35.1-45.29-32.74-59.81a6.77,6.77,0,0,0,5.26-4.31,6.91,6.91,0,1,0-13-4.73,6.81,6.81,0,0,0,3,8.18c-2.4,15.76-3.06,51.22,35.77,65.25a60.82,60.82,0,0,0,20.73,3.88c26.19,0,41.94-19.94,48.62-30.88a6.82,6.82,0,0,0,7.21-4.38A6.9,6.9,0,0,0,338.48,466.44Z" transform="translate(-42.85 -165.99)"/><path class="cls-5" d="M245.68,363.2c16.25,5.88,12.61,19.43,12.45,20a2.18,2.18,0,0,0,1.49,2.69,2.15,2.15,0,0,0,.61.09,2.19,2.19,0,0,0,2.09-1.57c.05-.18,5-18-15.15-25.32-10.51-3.79-17.59-1-22,2.48l-5.65-4.25a2.18,2.18,0,0,0-3.05.44,2.16,2.16,0,0,0,.44,3l5.1,3.84a20.11,20.11,0,0,0-2.72,4.11,2.18,2.18,0,1,0,4,1.76C223.52,370,229.34,357.28,245.68,363.2Z" transform="translate(-42.85 -165.99)"/><path class="cls-5" d="M397.43,422.08l-6.8-.36c-1.12-5.53-4.79-12.17-15.27-16-20.14-7.29-27.79,9.49-27.87,9.66a2.18,2.18,0,0,0,4,1.76c.24-.55,6-13.26,22.4-7.32,9.31,3.37,12.08,9.25,12.72,13.78,0,0,0,0,0,0s0,.07,0,.11a16.29,16.29,0,0,1-.3,6.08,2.19,2.19,0,0,0,1.5,2.69,2.1,2.1,0,0,0,.61.09,2.17,2.17,0,0,0,2.08-1.57,21,21,0,0,0,.56-5l6.12.32h.12a2.18,2.18,0,0,0,.12-4.36Z" transform="translate(-42.85 -165.99)"/></svg>