<svg id="Ebene_1" data-name="Ebene 1" xmlns="http://www.w3.org/2000/svg" viewBox="0 0 510.24 315.48"><defs><style>.cls-1{fill:#00a9d4;}.cls-2{fill:#de6411;}.cls-3{fill:#ec0;}.cls-4{fill:#f6a723;}.cls-5{fill:#43434a;}</style></defs><title>SusanneSoelch_Logo</title><path class="cls-1" d="M298,263.37a85,85,0,1,0,84.95,84.95A85,85,0,0,0,298,263.37ZM365.6,372.94c-1.47,4.05-19.68,2.57-24.46,2.11a54,54,0,0,1-3.3,4.69c2.05,4.3,9.69,20.95,6.39,23.72s-18.3-7.6-22.22-10.4a52.68,52.68,0,0,1-5.22,2.44c-.38,4.81-2.09,23-6.33,23.7s-12-15.69-14-20.09a50.93,50.93,0,0,1-5.75-.51c-2.73,4-13.28,18.83-17.32,17.36s-2.58-19.61-2.11-24.44a51.28,51.28,0,0,1-4.74-3.3c-4.37,2.08-20.91,9.66-23.67,6.37s7.6-18.31,10.4-22.23a49.55,49.55,0,0,1-2.44-5.22c-4.82-.38-23-2.08-23.7-6.32s15.77-12.07,20.13-14.06a50.38,50.38,0,0,1,.5-5.72c-3.95-2.71-18.86-13.28-17.39-17.33s19.57-2.58,24.42-2.12a49.25,49.25,0,0,1,3.33-4.71c-2.07-4.35-9.68-20.93-6.38-23.69s18.38,7.65,22.26,10.41a51.79,51.79,0,0,1,5.18-2.41c.38-4.76,2.08-23,6.33-23.75s12,15.74,14,20.12a48.61,48.61,0,0,1,5.75.47c2.75-4,13.27-18.81,17.31-17.34s2.58,19.56,2.11,24.41a48.25,48.25,0,0,1,4.72,3.34c4.35-2.08,20.92-9.68,23.69-6.38s-7.65,18.38-10.42,22.25a50.86,50.86,0,0,1,2.42,5.19c4.76.37,23,2.08,23.75,6.32s-15.74,12.06-20.12,14.05a48.63,48.63,0,0,1-.48,5.76C352.25,358.38,367.07,368.9,365.6,372.94Z" transform="translate(-42.85 -263.37)"/><path class="cls-1" d="M318.94,372.36c.12-.45.26-.9.42-1.34C319.2,371.46,319.06,371.91,318.94,372.36Z" transform="translate(-42.85 -263.37)"/><path class="cls-1" d="M318.49,375c0-.26.05-.51.09-.77C318.54,374.53,318.51,374.78,318.49,375Z" transform="translate(-42.85 -263.37)"/><path class="cls-1" d="M318.65,373.7c.05-.29.12-.58.19-.88C318.77,373.12,318.7,373.41,318.65,373.7Z" transform="translate(-42.85 -263.37)"/><path class="cls-1" d="M318.44,376.37c0-.24,0-.47,0-.7C318.44,375.9,318.44,376.13,318.44,376.37Z" transform="translate(-42.85 -263.37)"/><path class="cls-1" d="M318.94,380.15l-.12-.44Z" transform="translate(-42.85 -263.37)"/><path class="cls-1" d="M318.5,377.67c0-.21,0-.42,0-.63C318.47,377.25,318.48,377.46,318.5,377.67Z" transform="translate(-42.85 -263.37)"/><path class="cls-1" d="M318.67,378.94l-.09-.55Z" transform="translate(-42.85 -263.37)"/><path class="cls-1" d="M250.08,331.36a15.14,15.14,0,0,1,2.13-.14A15.14,15.14,0,0,0,250.08,331.36Z" transform="translate(-42.85 -263.37)"/><path class="cls-1" d="M340.34,362.3l.16.07Z" transform="translate(-42.85 -263.37)"/><path class="cls-1" d="M319.27,381.27l-.09-.28Z" transform="translate(-42.85 -263.37)"/><path class="cls-1" d="M326.92,390.07c-.35-.17-.67-.37-1-.56A10.56,10.56,0,0,0,326.92,390.07Z" transform="translate(-42.85 -263.37)"/><path class="cls-2" d="M324.69,305.1c.47-4.85,1.93-22.94-2.11-24.41S308,294,305.27,298a51.43,51.43,0,0,1,19.42,7.07Z" transform="translate(-42.85 -263.37)"/><path class="cls-2" d="M299.52,297.56c-2-4.38-9.81-20.87-14-20.12s-6,19-6.33,23.75A50.64,50.64,0,0,1,299.52,297.56Z" transform="translate(-42.85 -263.37)"/><path class="cls-2" d="M274,303.6c-3.88-2.76-18.95-13.19-22.26-10.41s4.31,19.34,6.38,23.69A50.72,50.72,0,0,1,274,303.6Z" transform="translate(-42.85 -263.37)"/><path class="cls-2" d="M253.23,372.36c-2.8,3.92-13.17,18.93-10.4,22.23s19.3-4.29,23.67-6.37A50.73,50.73,0,0,1,253.23,372.36Z" transform="translate(-42.85 -263.37)"/><path class="cls-2" d="M271.24,391.52c-.47,4.83-1.93,23,2.11,24.44s14.59-13.39,17.32-17.36a51.5,51.5,0,0,1-10.08-2.53A50,50,0,0,1,271.24,391.52Z" transform="translate(-42.85 -263.37)"/><path class="cls-2" d="M296.42,399.11c2,4.4,9.81,20.84,14,20.09s6-18.89,6.33-23.7A50.92,50.92,0,0,1,296.42,399.11Z" transform="translate(-42.85 -263.37)"/><path class="cls-2" d="M348.73,349.87c4.38-2,20.86-9.81,20.12-14.05s-19-5.95-23.75-6.32A50.59,50.59,0,0,1,348.73,349.87Z" transform="translate(-42.85 -263.37)"/><path class="cls-2" d="M342.68,324.31c2.77-3.87,13.19-18.95,10.42-22.25s-19.34,4.3-23.69,6.38A50.65,50.65,0,0,1,342.68,324.31Z" transform="translate(-42.85 -263.37)"/><path class="cls-3" d="M345.1,329.5a51.06,51.06,0,0,0-15.69-21.06,48.25,48.25,0,0,0-4.72-3.34A51.43,51.43,0,0,0,305.27,298a48.61,48.61,0,0,0-5.75-.47,50.64,50.64,0,0,0-20.38,3.63A51.79,51.79,0,0,0,274,303.6a50.72,50.72,0,0,0-15.88,13.28,49.25,49.25,0,0,0-3.33,4.71,51.16,51.16,0,0,0-4.53,9.35c-.05.14-.09.28-.14.42a15.14,15.14,0,0,1,2.13-.14,2.61,2.61,0,0,1,.28,0h0a15.19,15.19,0,0,1,5.14.91A15.4,15.4,0,0,1,251,362a14.83,14.83,0,0,1-2.08-.28,51.66,51.66,0,0,0,1.84,5.47,49.55,49.55,0,0,0,2.44,5.22,50.73,50.73,0,0,0,13.27,15.86,51.28,51.28,0,0,0,4.74,3.3,50,50,0,0,0,9.35,4.55,51.5,51.5,0,0,0,10.08,2.53,50.43,50.43,0,0,0,26.12-3.1,52.68,52.68,0,0,0,5.22-2.44,50.23,50.23,0,0,0,4.91-3,10.56,10.56,0,0,1-1-.56,15.42,15.42,0,0,1-6.66-8.24l-.09-.28q-.14-.4-.24-.84l-.12-.44-.15-.77-.09-.55c0-.24-.06-.48-.08-.72s0-.42,0-.63,0-.45,0-.67,0-.47,0-.7,0-.42,0-.63.05-.51.09-.77,0-.38.07-.57.12-.58.19-.88c0-.15.06-.31.1-.46.12-.45.26-.9.42-1.34a15.44,15.44,0,0,1,19.78-9.23c.41.15.81.33,1.2.51l.16.07a15.39,15.39,0,0,1,5,3.82c.06-.17.13-.32.19-.49a50.91,50.91,0,0,0,2.54-10.07,48.63,48.63,0,0,0,.48-5.76A50.59,50.59,0,0,0,345.1,329.5Zm-72,2a.73.73,0,1,1-1.33-.59,6.74,6.74,0,0,1,.91-1.37l-1.7-1.27a.73.73,0,1,1,.87-1.16l1.88,1.41c1.46-1.17,3.82-2.09,7.32-.82,6.71,2.42,5.06,8.37,5,8.43a.73.73,0,0,1-.69.52.64.64,0,0,1-.2,0,.72.72,0,0,1-.5-.9c.05-.19,1.27-4.7-4.14-6.66S273.17,331.3,273.1,331.48Zm39.73,34.89a2.26,2.26,0,0,1-2.4,1.45c-2.22,3.65-7.47,10.29-16.19,10.29a20.37,20.37,0,0,1-6.9-1.29c-12.93-4.68-12.71-16.48-11.92-21.73a2.27,2.27,0,0,1-1-2.73,2.3,2.3,0,1,1,2.57,3c-.79,4.83-1.06,15.59,10.9,19.91s18.57-4,21.11-8.17a2.29,2.29,0,1,1,3.83-.75Zm18.22-16.27h0l-2-.11a6.51,6.51,0,0,1-.19,1.66.73.73,0,0,1-.69.52.64.64,0,0,1-.2,0,.72.72,0,0,1-.5-.9,5.66,5.66,0,0,0,.1-2s0,0,0,0h0c-.21-1.51-1.13-3.47-4.24-4.59-5.44-2-7.38,2.25-7.45,2.43a.73.73,0,1,1-1.33-.58c0-.06,2.57-5.65,9.28-3.22,3.49,1.27,4.71,3.48,5.08,5.32l2.27.12a.71.71,0,0,1,.68.76A.72.72,0,0,1,331.05,350.1Z" transform="translate(-42.85 -263.37)"/><path class="cls-2" d="M326.92,390.07a50.23,50.23,0,0,1-4.91,3c3.92,2.8,18.92,13.16,22.22,10.4s-4.34-19.42-6.39-23.72A50.64,50.64,0,0,1,326.92,390.07Z" transform="translate(-42.85 -263.37)"/><path class="cls-2" d="M345.52,366.19a51.43,51.43,0,0,1-4.38,8.86c4.78.46,23,1.94,24.46-2.11s-13.35-14.56-17.35-17.31a50.91,50.91,0,0,1-2.54,10.07C345.65,365.87,345.58,366,345.52,366.19Z" transform="translate(-42.85 -263.37)"/><path class="cls-4" d="M340.5,362.37l-.16-.07c-.39-.18-.79-.36-1.2-.51A15.44,15.44,0,0,0,319.36,371c-.16.44-.3.89-.42,1.34,0,.15-.06.31-.1.46-.07.3-.14.59-.19.88s0,.38-.07.57-.07.51-.09.77,0,.42,0,.63,0,.46,0,.7,0,.45,0,.67,0,.42,0,.63.05.48.08.72l.09.55.15.77.12.44q.1.44.24.84l.09.28a15.42,15.42,0,0,0,6.66,8.24c.32.19.64.39,1,.56a50.64,50.64,0,0,0,10.92-10.33,54,54,0,0,0,3.3-4.69,51.43,51.43,0,0,0,4.38-8.86A15.39,15.39,0,0,0,340.5,362.37Z" transform="translate(-42.85 -263.37)"/><path class="cls-2" d="M247.22,346.76c-4.36,2-20.88,9.82-20.13,14.06s18.88,5.94,23.7,6.32a51.66,51.66,0,0,1-1.84-5.47A50.31,50.31,0,0,1,247.22,346.76Z" transform="translate(-42.85 -263.37)"/><path class="cls-2" d="M250.22,330.94a51.16,51.16,0,0,1,4.53-9.35c-4.85-.46-22.95-1.92-24.42,2.12s13.44,14.62,17.39,17.33a50.23,50.23,0,0,1,2.36-9.68C250.13,331.22,250.17,331.08,250.22,330.94Z" transform="translate(-42.85 -263.37)"/><path class="cls-4" d="M249,361.67A14.83,14.83,0,0,0,251,362a15.4,15.4,0,0,0,6.6-29.82,15.19,15.19,0,0,0-5.14-.91h0a2.61,2.61,0,0,0-.28,0,15.14,15.14,0,0,0-2.13.14A51.46,51.46,0,0,0,249,361.67Z" transform="translate(-42.85 -263.37)"/><path class="cls-5" d="M311.46,363.42a2.28,2.28,0,0,0-2.46,3.7c-2.54,4.22-9.23,12.47-21.11,8.17S276.2,360.21,277,355.38a2.3,2.3,0,1,0-1.57-.29c-.79,5.25-1,17.05,11.92,21.73a20.37,20.37,0,0,0,6.9,1.29c8.72,0,14-6.64,16.19-10.29a2.26,2.26,0,0,0,2.4-1.45A2.29,2.29,0,0,0,311.46,363.42Z" transform="translate(-42.85 -263.37)"/><path class="cls-5" d="M280.56,329c5.41,2,4.19,6.47,4.14,6.66a.72.72,0,0,0,.5.9.64.64,0,0,0,.2,0,.73.73,0,0,0,.69-.52c0-.06,1.67-6-5-8.43-3.5-1.27-5.86-.35-7.32.82l-1.88-1.41a.73.73,0,1,0-.87,1.16l1.7,1.27a6.74,6.74,0,0,0-.91,1.37.73.73,0,1,0,1.33.59C273.17,331.3,275.11,327.07,280.56,329Z" transform="translate(-42.85 -263.37)"/><path class="cls-5" d="M331.09,348.65l-2.27-.12c-.37-1.84-1.59-4-5.08-5.32-6.71-2.43-9.26,3.16-9.28,3.22a.73.73,0,1,0,1.33.58c.07-.18,2-4.41,7.45-2.43,3.11,1.12,4,3.08,4.24,4.59h0s0,0,0,0a5.66,5.66,0,0,1-.1,2,.72.72,0,0,0,.5.9.64.64,0,0,0,.2,0,.73.73,0,0,0,.69-.52A6.51,6.51,0,0,0,329,350l2,.11h0a.72.72,0,0,0,.72-.69A.71.71,0,0,0,331.09,348.65Z" transform="translate(-42.85 -263.37)"/><path class="cls-2" d="M44.23,510.76l1.07-4.25a27.39,27.39,0,0,0,13.09,3.6,15.45,15.45,0,0,0,7.84-1.88,6.52,6.52,0,0,0,3.26-6.11,10.11,10.11,0,0,0-2.76-6.87,28.72,28.72,0,0,0-6.66-5.49q-3.9-2.38-7.81-4.87a25.46,25.46,0,0,1-6.66-6.13,13.07,13.07,0,0,1-2.75-8.07,14.76,14.76,0,0,1,3.9-9.92,12.09,12.09,0,0,1,9.42-4.47A30.59,30.59,0,0,1,65.54,458a72.39,72.39,0,0,1,8.69,3.37l-.92,3.06q-8.72-3-14.69-3a9,9,0,0,0-6.28,2.38,7.88,7.88,0,0,0-2.6,6.12,9.38,9.38,0,0,0,1.45,5.13A14.31,14.31,0,0,0,55,479a54,54,0,0,0,5.21,3.29q2.87,1.6,5.7,3.45a38.65,38.65,0,0,1,5.17,4,16.34,16.34,0,0,1,3.79,5.39,17.9,17.9,0,0,1,1.45,7.31,12.61,12.61,0,0,1-3.67,9.38,13,13,0,0,1-9.57,3.64,44.9,44.9,0,0,1-10.76-1.41Q46.6,512.67,44.23,510.76Z" transform="translate(-42.85 -263.37)"/><path class="cls-2" d="M112.34,458.29l4.52.38q1,14.08,1,23.8,0,7-.38,16.08a51.16,51.16,0,0,1-.61,6.47,21.33,21.33,0,0,1-1.61,5.17,10.23,10.23,0,0,1-3.1,4,15,15,0,0,1-5.09,2.38,28.65,28.65,0,0,1-7.58.88,24.52,24.52,0,0,1-5.66-.58,15.82,15.82,0,0,1-4.1-1.49A9,9,0,0,1,86.93,513a13.07,13.07,0,0,1-1.8-3.1,17,17,0,0,1-1-3.83c-.23-1.48-.39-2.88-.49-4.21s-.21-2.88-.31-4.67v-.3Q82.94,487.53,83,481q0-5.5.46-22.2l4.21.92q.15,7,.84,20.09t.92,18.57c.05,1.73.12,3.11.23,4.13a20,20,0,0,0,.72,3.52,7.57,7.57,0,0,0,1.57,3.06A8,8,0,0,0,94.74,511a11.73,11.73,0,0,0,4.51.77,26.88,26.88,0,0,0,4.63-.35,7.71,7.71,0,0,0,3.22-1.26,12.31,12.31,0,0,0,2.06-1.84,6.57,6.57,0,0,0,1.27-2.72c.3-1.19.52-2.24.65-3.13s.27-2.21.42-3.95q.54-6.57.61-21.28T112.34,458.29Z" transform="translate(-42.85 -263.37)"/><path class="cls-2" d="M126,510.76l1.07-4.25a27.39,27.39,0,0,0,13.09,3.6,15.49,15.49,0,0,0,7.85-1.88,6.54,6.54,0,0,0,3.25-6.11,10.11,10.11,0,0,0-2.76-6.87,28.3,28.3,0,0,0-6.66-5.49q-3.9-2.38-7.8-4.87a25.15,25.15,0,0,1-6.66-6.13,13,13,0,0,1-2.76-8.07,14.72,14.72,0,0,1,3.91-9.92A12.07,12.07,0,0,1,138,456.3a30.64,30.64,0,0,1,9.38,1.68,73.06,73.06,0,0,1,8.69,3.37l-.92,3.06q-8.73-3-14.7-3a9,9,0,0,0-6.28,2.38,7.91,7.91,0,0,0-2.6,6.12,9.38,9.38,0,0,0,1.45,5.13,14.46,14.46,0,0,0,3.79,4,55.21,55.21,0,0,0,5.21,3.29q2.87,1.6,5.7,3.45a38.65,38.65,0,0,1,5.17,4,16.34,16.34,0,0,1,3.79,5.39,17.73,17.73,0,0,1,1.45,7.31,12.61,12.61,0,0,1-3.67,9.38,13,13,0,0,1-9.57,3.64,45,45,0,0,1-10.76-1.41Q128.4,512.67,126,510.76Z" transform="translate(-42.85 -263.37)"/><path class="cls-2" d="M180.46,459.59l5.74.38q2.15,9.5,8.8,26.83t8.81,25.91A5.89,5.89,0,0,1,203,516a2.26,2.26,0,0,1-1.91,1.11,2.77,2.77,0,0,1-1.88-.8,4.07,4.07,0,0,1-1.18-2.26,118.39,118.39,0,0,0-4.43-13.47q-15.73-2-19.78-2.45a90.6,90.6,0,0,0-2.44,8.95c-1,4.14-1.73,7-2.29,8.58a3.33,3.33,0,0,1-2.6,1.37,3.47,3.47,0,0,1-2.76-1.41,5.38,5.38,0,0,1-1.15-3.48q2.46-9,8.88-26.34T180.46,459.59Zm2.64,7.73q-1.53,9.26-8.47,27.17h8.55q5.81,0,9.69.39Q185,478,183.1,467.32Z" transform="translate(-42.85 -263.37)"/><path class="cls-2" d="M210.37,512.94l1-53h4.14l25,47.54v-6.05q0-23.11.84-41.57l4.36.85q.86,16.61,1.38,54.73a8.43,8.43,0,0,1-3.37.69,11.45,11.45,0,0,1-5.43-1.53,230.42,230.42,0,0,1-11.6-21.06q-6.93-13.85-9.83-19,.08,5.21.11,19t.27,20.9c-.46,1.58-1.35,2.38-2.68,2.38a3.92,3.92,0,0,1-2.64-1.15A4.9,4.9,0,0,1,210.37,512.94Z" transform="translate(-42.85 -263.37)"/><path class="cls-2" d="M255.94,512.94l1-53h4.13l25,47.54v-6.05q0-23.11.85-41.57l4.36.85q.84,16.61,1.38,54.73a8.47,8.47,0,0,1-3.37.69,11.45,11.45,0,0,1-5.44-1.53,230.8,230.8,0,0,1-11.59-21.06q-6.93-13.85-9.84-19,.07,5.21.12,19t.26,20.9c-.46,1.58-1.35,2.38-2.68,2.38a4,4,0,0,1-2.64-1.15A5,5,0,0,1,255.94,512.94Z" transform="translate(-42.85 -263.37)"/><path class="cls-2" d="M330.51,511.64l.76,3.44q-3,0-10.83.27t-11.37.27a36.13,36.13,0,0,1-7.73-.54q.77-8.42.92-28.17t1-27.55q2.61.22,13.82.38a132.85,132.85,0,0,1,14.66.69l.84,3.44q-3.44.61-13.78,1.46t-10.87.92q.07,1.75.35,7.19c.18,3.63.29,6.61.34,9,1.74.2,4.9.5,9.49.88l8.73.73.77,3.52q-16.16,1.46-18.91,1.53,0,3.36-.12,10.22t-.11,10.06Q326,510.95,330.51,511.64Z" transform="translate(-42.85 -263.37)"/><path class="cls-2" d="M362.77,510.76l1.07-4.25a27.39,27.39,0,0,0,13.09,3.6,15.45,15.45,0,0,0,7.84-1.88,6.52,6.52,0,0,0,3.26-6.11,10.11,10.11,0,0,0-2.76-6.87,28.72,28.72,0,0,0-6.66-5.49q-3.9-2.38-7.81-4.87a25.46,25.46,0,0,1-6.66-6.13,13.07,13.07,0,0,1-2.75-8.07,14.76,14.76,0,0,1,3.9-9.92,12.07,12.07,0,0,1,9.42-4.47,30.59,30.59,0,0,1,9.37,1.68,72.39,72.39,0,0,1,8.69,3.37l-.92,3.06q-8.72-3-14.69-3a9,9,0,0,0-6.28,2.38,7.88,7.88,0,0,0-2.6,6.12,9.38,9.38,0,0,0,1.45,5.13,14.31,14.31,0,0,0,3.79,4,54,54,0,0,0,5.21,3.29q2.86,1.6,5.7,3.45a38.65,38.65,0,0,1,5.17,4,16.34,16.34,0,0,1,3.79,5.39,17.9,17.9,0,0,1,1.45,7.31,12.61,12.61,0,0,1-3.67,9.38,13,13,0,0,1-9.57,3.64,44.9,44.9,0,0,1-10.76-1.41Q365.14,512.67,362.77,510.76Z" transform="translate(-42.85 -263.37)"/><path class="cls-2" d="M401.52,489.44V485.5c0-.89,0-2.26.12-4.1s.18-3.29.31-4.36.31-2.46.57-4.17a19.38,19.38,0,0,1,1-4.14c.41-1,.88-2.23,1.42-3.55a9.56,9.56,0,0,1,2-3.22,26.66,26.66,0,0,1,2.68-2.33,9.82,9.82,0,0,1,3.44-1.65,16.66,16.66,0,0,1,4.37-.54,17.3,17.3,0,0,1,8.26,1.88,15.35,15.35,0,0,1,5.51,4.71,23.09,23.09,0,0,1,3.18,7,43.08,43.08,0,0,1,1.53,7.89q.35,3.75.35,8.26c0,2.05,0,3.88-.12,5.52s-.23,3.48-.46,5.55a36.42,36.42,0,0,1-1,5.47,29.78,29.78,0,0,1-1.8,4.78,14.08,14.08,0,0,1-2.72,4,12.07,12.07,0,0,1-3.94,2.57,13.57,13.57,0,0,1-5.28,1,25.42,25.42,0,0,1-8.15-1.15,14.71,14.71,0,0,1-5.59-3.21,14.13,14.13,0,0,1-3.45-5.44,32.19,32.19,0,0,1-1.76-7.34A77.49,77.49,0,0,1,401.52,489.44Zm6.66-45.77a4.32,4.32,0,0,1,3.49,1.79,6.48,6.48,0,0,1,1.41,4.1,4.29,4.29,0,0,1-.8,2.72,2.61,2.61,0,0,1-2.18,1,4,4,0,0,1-3.41-1.76,6.9,6.9,0,0,1-1.26-4.13,4.58,4.58,0,0,1,.73-2.72A2.31,2.31,0,0,1,408.18,443.67Zm22.59,46.38a56,56,0,0,0-.58-7.8,66.14,66.14,0,0,0-1.92-8.73A17.6,17.6,0,0,0,424,465.9a9.52,9.52,0,0,0-7-2.94c-2,0-3.85,1.36-5.42,4.09a30.1,30.1,0,0,0-3.34,9.19,50.33,50.33,0,0,0-1,9.6c0,2.1,0,3.69,0,4.79s.12,2.65.27,4.67a31.59,31.59,0,0,0,.65,4.78,30,30,0,0,0,1.35,4.06,10.33,10.33,0,0,0,2.19,3.56,11.6,11.6,0,0,0,3.3,2.22,11.4,11.4,0,0,0,4.57,1q5.61-.3,8.37-6.28A34.7,34.7,0,0,0,430.77,490.05Zm-6.2-46.38a4.31,4.31,0,0,1,3.48,1.79,6.48,6.48,0,0,1,1.41,4.1,4.29,4.29,0,0,1-.8,2.72,2.61,2.61,0,0,1-2.18,1,4,4,0,0,1-3.41-1.76,6.9,6.9,0,0,1-1.26-4.13,4.58,4.58,0,0,1,.73-2.72A2.33,2.33,0,0,1,424.57,443.67Z" transform="translate(-42.85 -263.37)"/><path class="cls-2" d="M445.12,460.2l4.65.46q1.16,11.71,2.23,48.22,5.12-.3,13-.3t12.59-.23a15.16,15.16,0,0,1,.65,3.67,34.39,34.39,0,0,0,.42,3.52q-10-.62-25.57-.61h-8.49q.39-11.32.42-30.31T445.12,460.2Z" transform="translate(-42.85 -263.37)"/><path class="cls-2" d="M513.31,464.56l-3.06,3.52c-4-2.95-7.91-4.44-11.79-4.44a11.63,11.63,0,0,0-6.58,1.84,12.56,12.56,0,0,0-4.17,4.44,23.32,23.32,0,0,0-2.22,6.58,53.37,53.37,0,0,0-1,6.89q-.19,2.91-.19,6.82a31.21,31.21,0,0,0,1.42,8.68A26.14,26.14,0,0,0,490.5,508q3.38,4.2,7.81,4.21,4.83,0,14.77-5.06a39.27,39.27,0,0,1,2.61,4.83q-9.65,6.66-17.23,6.66a14.76,14.76,0,0,1-8.95-3,21.08,21.08,0,0,1-6.39-7.58,45.51,45.51,0,0,1-3.6-9.6,39.23,39.23,0,0,1-1.27-9.54,60.32,60.32,0,0,1,.77-9.68,47.26,47.26,0,0,1,2.6-9.45,17.6,17.6,0,0,1,5.55-7.66A13.91,13.91,0,0,1,496,459.2a30,30,0,0,1,9.19,1.54A31.47,31.47,0,0,1,513.31,464.56Z" transform="translate(-42.85 -263.37)"/><path class="cls-2" d="M546.19,460.05l4.44-.92a291.45,291.45,0,0,1,1.73,30q.35,19.17.72,25.37c-.46,1.58-1.35,2.38-2.68,2.38a3.92,3.92,0,0,1-2.64-1.15,5,5,0,0,1-1.57-2.76q.07-2.76.08-9.18V488.68c-1.13.05-2.7.16-4.73.34s-3.87.32-5.53.42-3.25.15-4.73.15c-1.33,0-2.31,0-2.92-.07q.15,4.67.53,13.2t.54,11.75c-.46,1.58-1.35,2.38-2.66,2.38a3.85,3.85,0,0,1-2.6-1.15,4.87,4.87,0,0,1-1.55-2.76q.23-6.59.41-25.57t.72-28.24l3.4.76c0,.16,0,.4,0,.73s0,.6,0,.8q1,18.84,1.13,23.58l5.57-.5c2-.17,4.15-.38,6.54-.61s4.24-.39,5.57-.5c.05,0,.08-.25.08-.76s0-2.58,0-6.2S546.19,467.35,546.19,460.05Z" transform="translate(-42.85 -263.37)"/><path class="cls-1" d="M56.76,543.36a7.89,7.89,0,0,0-6.5,2.93q-2.35,2.93-2.36,8.07,0,5.4,2.27,8.16a8,8,0,0,0,6.59,2.77,17.14,17.14,0,0,0,3.61-.37c1.16-.25,2.37-.57,3.63-.95v4.11a22.22,22.22,0,0,1-7.82,1.3q-6.43,0-9.88-3.9t-3.45-11.15a18.09,18.09,0,0,1,1.67-8,12,12,0,0,1,4.84-5.26,14.7,14.7,0,0,1,7.44-1.82,18.55,18.55,0,0,1,8.3,1.88l-1.73,4a25.8,25.8,0,0,0-3.13-1.23A11.51,11.51,0,0,0,56.76,543.36Z" transform="translate(-42.85 -263.37)"/><path class="cls-1" d="M74.29,569H69.58V537.79h4.71Z" transform="translate(-42.85 -263.37)"/><path class="cls-1" d="M90.53,569.38a10.74,10.74,0,0,1-8.09-3q-2.91-3-2.91-8.31t2.7-8.54a9.37,9.37,0,0,1,7.44-3.1,9.13,9.13,0,0,1,6.94,2.66,10.23,10.23,0,0,1,2.54,7.34V559H84.38a7.28,7.28,0,0,0,1.74,5,6.1,6.1,0,0,0,4.63,1.73,16.94,16.94,0,0,0,3.66-.37,19.78,19.78,0,0,0,3.64-1.23v3.83A14.9,14.9,0,0,1,94.56,569,21.13,21.13,0,0,1,90.53,569.38ZM89.67,550a4.73,4.73,0,0,0-3.6,1.43,6.77,6.77,0,0,0-1.61,4.15H94.52a6.18,6.18,0,0,0-1.32-4.16A4.51,4.51,0,0,0,89.67,550Z" transform="translate(-42.85 -263.37)"/><path class="cls-1" d="M109.31,569l-8.42-22.17h5l4.51,12.89a25.79,25.79,0,0,1,1.41,5.25h.16a34.58,34.58,0,0,1,1.4-5.25l4.51-12.89h5L114.4,569Z" transform="translate(-42.85 -263.37)"/><path class="cls-1" d="M135.43,569.38a10.72,10.72,0,0,1-8.08-3q-2.92-3-2.92-8.31t2.71-8.54a9.33,9.33,0,0,1,7.43-3.1,9.13,9.13,0,0,1,6.94,2.66,10.2,10.2,0,0,1,2.55,7.34V559H129.28a7.33,7.33,0,0,0,1.74,5,6.11,6.11,0,0,0,4.64,1.73,16.84,16.84,0,0,0,3.65-.37,19.53,19.53,0,0,0,3.64-1.23v3.83a14.9,14.9,0,0,1-3.49,1.16A21.13,21.13,0,0,1,135.43,569.38ZM134.57,550A4.72,4.72,0,0,0,131,551.4a6.72,6.72,0,0,0-1.62,4.15h10.06a6.08,6.08,0,0,0-1.32-4.16A4.5,4.5,0,0,0,134.57,550Z" transform="translate(-42.85 -263.37)"/><path class="cls-1" d="M160.58,546.41a10.89,10.89,0,0,1,2.34.2l-.46,4.39a8.93,8.93,0,0,0-2.09-.24,6,6,0,0,0-4.58,1.84,6.67,6.67,0,0,0-1.75,4.79V569h-4.71V546.81H153l.62,3.91h.24a8.6,8.6,0,0,1,2.88-3.15A6.78,6.78,0,0,1,160.58,546.41Z" transform="translate(-42.85 -263.37)"/><path class="cls-1" d="M176.25,561.22a8.19,8.19,0,0,1,1.28-4.58,13.53,13.53,0,0,1,4.63-3.88,16.86,16.86,0,0,1-2.59-3.76,7.64,7.64,0,0,1-.69-3.17,5.87,5.87,0,0,1,2.17-4.82,9,9,0,0,1,5.84-1.76,8.38,8.38,0,0,1,5.58,1.71,5.76,5.76,0,0,1,2,4.63,6.88,6.88,0,0,1-1.35,4.14,14.66,14.66,0,0,1-4.52,3.73l6.93,6.7a18,18,0,0,0,2.71-6.3h4.85a22.06,22.06,0,0,1-4.49,9.29l6,5.83h-6.08l-3-2.91a14.44,14.44,0,0,1-9.49,3.31,11,11,0,0,1-7.23-2.19A7.34,7.34,0,0,1,176.25,561.22Zm10.1,4.11a9.57,9.57,0,0,0,6.28-2.15L185,555.63a10.21,10.21,0,0,0-2.93,2.55,4.8,4.8,0,0,0-.8,2.72,4.11,4.11,0,0,0,1.39,3.2A5.46,5.46,0,0,0,186.35,565.33Zm-3-19.34a4.54,4.54,0,0,0,.67,2.38,13.91,13.91,0,0,0,1.87,2.39,11.68,11.68,0,0,0,3.18-2.4,3.82,3.82,0,0,0,.91-2.5,2.67,2.67,0,0,0-.87-2.08,3.34,3.34,0,0,0-2.32-.78,3.69,3.69,0,0,0-2.51.81A2.75,2.75,0,0,0,183.37,546Z" transform="translate(-42.85 -263.37)"/><path class="cls-1" d="M228.43,569.38a10.74,10.74,0,0,1-8.09-3q-2.91-3-2.91-8.31t2.7-8.54a9.34,9.34,0,0,1,7.44-3.1,9.09,9.09,0,0,1,6.93,2.66,10.2,10.2,0,0,1,2.55,7.34V559H222.28a7.23,7.23,0,0,0,1.74,5,6.1,6.1,0,0,0,4.63,1.73,16.94,16.94,0,0,0,3.66-.37,19.78,19.78,0,0,0,3.64-1.23v3.83a14.9,14.9,0,0,1-3.49,1.16A21.2,21.2,0,0,1,228.43,569.38ZM227.57,550a4.73,4.73,0,0,0-3.6,1.43,6.77,6.77,0,0,0-1.61,4.15h10.06a6.18,6.18,0,0,0-1.32-4.16A4.52,4.52,0,0,0,227.57,550Z" transform="translate(-42.85 -263.37)"/><path class="cls-1" d="M261.83,569H257.1V555.35a6,6,0,0,0-1-3.83,4,4,0,0,0-3.28-1.27,5.2,5.2,0,0,0-4.37,1.77c-.92,1.17-1.39,3.15-1.39,5.91V569h-4.71V546.81H246l.67,2.9h.24a6.49,6.49,0,0,1,2.84-2.44,9.45,9.45,0,0,1,4.09-.86q8,0,8,8.11Z" transform="translate(-42.85 -263.37)"/><path class="cls-1" d="M276.32,565.57a11.49,11.49,0,0,0,3.45-.54v3.55a9.21,9.21,0,0,1-2,.57,14.14,14.14,0,0,1-2.55.23q-6.7,0-6.7-7.06V550.38h-3v-2.09l3.25-1.72,1.61-4.69h2.9v4.93h6.32v3.57h-6.32v11.86a3.32,3.32,0,0,0,.85,2.52A3.13,3.13,0,0,0,276.32,565.57Z" transform="translate(-42.85 -263.37)"/><path class="cls-1" d="M299.51,562.66a5.8,5.8,0,0,1-2.36,5q-2.37,1.74-6.78,1.74a16.06,16.06,0,0,1-7.11-1.34V564a17.47,17.47,0,0,0,7.27,1.8q4.35,0,4.35-2.62a2.1,2.1,0,0,0-.48-1.41,5.8,5.8,0,0,0-1.58-1.16,26.55,26.55,0,0,0-3.07-1.36,14.18,14.18,0,0,1-5.18-3,5.5,5.5,0,0,1-1.35-3.85,5,5,0,0,1,2.29-4.42,10.88,10.88,0,0,1,6.24-1.57,17.6,17.6,0,0,1,7.4,1.58l-1.52,3.55a16.43,16.43,0,0,0-6-1.49q-3.72,0-3.72,2.13a2.13,2.13,0,0,0,1,1.76,21.26,21.26,0,0,0,4.24,2,19.47,19.47,0,0,1,4,1.94,5.79,5.79,0,0,1,1.84,2A5.88,5.88,0,0,1,299.51,562.66Z" transform="translate(-42.85 -263.37)"/><path class="cls-1" d="M315.71,569.38a7.76,7.76,0,0,1-6.53-3h-.28c.18,1.87.28,3,.28,3.41v9.08h-4.71v-32h3.81c.1.41.32,1.4.66,3h.24a7.38,7.38,0,0,1,6.61-3.36,7.7,7.7,0,0,1,6.47,3q2.31,3,2.31,8.44t-2.35,8.48A7.78,7.78,0,0,1,315.71,569.38Zm-1.14-19.13a4.89,4.89,0,0,0-4.1,1.65c-.86,1.09-1.29,2.85-1.29,5.25v.7q0,4,1.28,5.87a4.77,4.77,0,0,0,4.19,1.81,4.26,4.26,0,0,0,3.77-2,10.41,10.41,0,0,0,1.32-5.72,10,10,0,0,0-1.31-5.64A4.38,4.38,0,0,0,314.57,550.25Z" transform="translate(-42.85 -263.37)"/><path class="cls-1" d="M343.78,569l-.94-3.09h-.16a9.15,9.15,0,0,1-3.23,2.76,10.39,10.39,0,0,1-4.17.73,7.07,7.07,0,0,1-5.1-1.76,6.61,6.61,0,0,1-1.84-5,5.86,5.86,0,0,1,2.55-5.17c1.69-1.16,4.28-1.8,7.76-1.9l3.82-.12v-1.18a4.49,4.49,0,0,0-1-3.18A4,4,0,0,0,338.4,550a10.73,10.73,0,0,0-3.26.5,24.79,24.79,0,0,0-3,1.19l-1.52-3.37a16,16,0,0,1,3.95-1.43,18,18,0,0,1,4.05-.49q4.22,0,6.38,1.84c1.44,1.23,2.15,3.16,2.15,5.79V569Zm-7-3.21a5.87,5.87,0,0,0,4.12-1.43,5.2,5.2,0,0,0,1.56-4v-1.93l-2.85.12a9.71,9.71,0,0,0-4.84,1.12,3.37,3.37,0,0,0-1.52,3,3,3,0,0,0,.88,2.3A3.82,3.82,0,0,0,336.76,565.77Z" transform="translate(-42.85 -263.37)"/><path class="cls-1" d="M372.9,569h-4.73V555.35a6,6,0,0,0-1-3.83,4,4,0,0,0-3.28-1.27,5.2,5.2,0,0,0-4.37,1.77c-.92,1.17-1.38,3.15-1.38,5.91V569H353.4V546.81h3.69l.66,2.9H358a6.6,6.6,0,0,1,2.84-2.44,9.49,9.49,0,0,1,4.09-.86q8,0,8,8.11Z" transform="translate(-42.85 -263.37)"/><path class="cls-1" d="M398.66,569h-4.73V555.35a6,6,0,0,0-1-3.83,4,4,0,0,0-3.28-1.27,5.2,5.2,0,0,0-4.37,1.77c-.92,1.17-1.38,3.15-1.38,5.91V569h-4.71V546.81h3.69l.66,2.9h.24a6.6,6.6,0,0,1,2.84-2.44,9.49,9.49,0,0,1,4.09-.86q8,0,8,8.11Z" transform="translate(-42.85 -263.37)"/><path class="cls-1" d="M413.15,565.57a11.49,11.49,0,0,0,3.45-.54v3.55a9.05,9.05,0,0,1-2,.57,14.14,14.14,0,0,1-2.55.23q-6.69,0-6.7-7.06V550.38h-3v-2.09l3.25-1.72,1.6-4.69h2.9v4.93h6.32v3.57h-6.32v11.86a3.33,3.33,0,0,0,.86,2.52A3.1,3.1,0,0,0,413.15,565.57Z" transform="translate(-42.85 -263.37)"/><path class="cls-1" d="M436.41,569H431.7V537.79h4.71Z" transform="translate(-42.85 -263.37)"/><path class="cls-1" d="M452.65,569.38a10.74,10.74,0,0,1-8.09-3q-2.91-3-2.91-8.31t2.7-8.54a9.34,9.34,0,0,1,7.44-3.1,9.09,9.09,0,0,1,6.93,2.66,10.2,10.2,0,0,1,2.55,7.34V559H446.5a7.23,7.23,0,0,0,1.74,5,6.1,6.1,0,0,0,4.63,1.73,16.94,16.94,0,0,0,3.66-.37,19.78,19.78,0,0,0,3.64-1.23v3.83a14.9,14.9,0,0,1-3.49,1.16A21.2,21.2,0,0,1,452.65,569.38ZM451.79,550a4.73,4.73,0,0,0-3.6,1.43,6.77,6.77,0,0,0-1.61,4.15h10.06a6.18,6.18,0,0,0-1.32-4.16A4.52,4.52,0,0,0,451.79,550Z" transform="translate(-42.85 -263.37)"/><path class="cls-1" d="M477.79,546.41a11,11,0,0,1,2.35.2l-.47,4.39a8.84,8.84,0,0,0-2.08-.24A6,6,0,0,0,473,552.6a6.67,6.67,0,0,0-1.76,4.79V569h-4.71V546.81h3.69l.62,3.91h.24a8.77,8.77,0,0,1,2.88-3.15A6.8,6.8,0,0,1,477.79,546.41Z" transform="translate(-42.85 -263.37)"/><path class="cls-1" d="M503.63,569H498.9V555.35a6,6,0,0,0-1-3.83,4,4,0,0,0-3.27-1.27,5.19,5.19,0,0,0-4.37,1.77c-.93,1.17-1.39,3.15-1.39,5.91V569h-4.71V546.81h3.69l.66,2.9h.24a6.57,6.57,0,0,1,2.85-2.44,9.45,9.45,0,0,1,4.09-.86q8,0,8,8.11Z" transform="translate(-42.85 -263.37)"/><path class="cls-1" d="M519.68,569.38a10.74,10.74,0,0,1-8.09-3q-2.91-3-2.91-8.31t2.71-8.54a9.33,9.33,0,0,1,7.43-3.1,9.13,9.13,0,0,1,6.94,2.66,10.23,10.23,0,0,1,2.54,7.34V559H513.53a7.33,7.33,0,0,0,1.74,5,6.1,6.1,0,0,0,4.63,1.73,16.94,16.94,0,0,0,3.66-.37,19.53,19.53,0,0,0,3.64-1.23v3.83a14.9,14.9,0,0,1-3.49,1.16A21.13,21.13,0,0,1,519.68,569.38ZM518.82,550a4.74,4.74,0,0,0-3.6,1.43,6.77,6.77,0,0,0-1.61,4.15h10.06a6.13,6.13,0,0,0-1.32-4.16A4.51,4.51,0,0,0,518.82,550Z" transform="translate(-42.85 -263.37)"/><path class="cls-1" d="M553.08,569h-4.73V555.35a6,6,0,0,0-1-3.83,4,4,0,0,0-3.28-1.27,5.2,5.2,0,0,0-4.37,1.77c-.92,1.17-1.38,3.15-1.38,5.91V569h-4.71V546.81h3.69l.66,2.9h.24a6.6,6.6,0,0,1,2.84-2.44,9.49,9.49,0,0,1,4.09-.86q8,0,8,8.11Z" transform="translate(-42.85 -263.37)"/></svg>