<?xml version="1.0" encoding="UTF-8" standalone="no"?>
<svg
   xmlns:dc="http://purl.org/dc/elements/1.1/"
   xmlns:cc="http://creativecommons.org/ns#"
   xmlns:rdf="http://www.w3.org/1999/02/22-rdf-syntax-ns#"
   xmlns:svg="http://www.w3.org/2000/svg"
   xmlns="http://www.w3.org/2000/svg"
   xmlns:sodipodi="http://sodipodi.sourceforge.net/DTD/sodipodi-0.dtd"
   xmlns:inkscape="http://www.inkscape.org/namespaces/inkscape"
   id="Ebene_1"
   data-name="Ebene 1"
   viewBox="0 0 510.24 123.46"
   version="1.1"
   sodipodi:docname="SusanneSoelch_Logo_quer_orig.svg"
   inkscape:version="0.92.4 (5da689c313, 2019-01-14)">
  <metadata
     id="metadata143">
    <rdf:RDF>
      <cc:Work
         rdf:about="">
        <dc:format>image/svg+xml</dc:format>
        <dc:type
           rdf:resource="http://purl.org/dc/dcmitype/StillImage" />
        <dc:title>SusanneSoelch_Logo_quer</dc:title>
      </cc:Work>
    </rdf:RDF>
  </metadata>
  <sodipodi:namedview
     pagecolor="#ffffff"
     bordercolor="#666666"
     borderopacity="1"
     objecttolerance="10"
     gridtolerance="10"
     guidetolerance="10"
     inkscape:pageopacity="0"
     inkscape:pageshadow="2"
     inkscape:window-width="2560"
     inkscape:window-height="1371"
     id="namedview141"
     showgrid="false"
     inkscape:zoom="1.7414444"
     inkscape:cx="185.39514"
     inkscape:cy="93.044792"
     inkscape:window-x="0"
     inkscape:window-y="27"
     inkscape:window-maximized="1"
     inkscape:current-layer="Ebene_1" />
  <defs
     id="defs4">
    <style
       id="style2">.cls-1{fill:#de6411;}.cls-2{fill:#00a9d4;}.cls-3{fill:#ec0;}.cls-4{fill:#f6a723;}.cls-5{fill:#43434a;}</style>
  </defs>
  <title
     id="title6">SusanneSoelch_Logo_quer</title>
  <path
     class="cls-1"
     d="M183.35,420.84l.78-3.09a20,20,0,0,0,9.51,2.61,11.19,11.19,0,0,0,5.7-1.36,4.74,4.74,0,0,0,2.37-4.44,7.41,7.41,0,0,0-2-5,21.52,21.52,0,0,0-4.84-4q-2.84-1.72-5.68-3.53a18.49,18.49,0,0,1-4.83-4.45,9.47,9.47,0,0,1-2-5.87,10.72,10.72,0,0,1,2.84-7.2,8.77,8.77,0,0,1,6.84-3.26,22.06,22.06,0,0,1,6.81,1.23,52.79,52.79,0,0,1,6.32,2.44l-.67,2.23A34.11,34.11,0,0,0,193.81,385a6.57,6.57,0,0,0-4.56,1.72,5.76,5.76,0,0,0-1.89,4.45,6.76,6.76,0,0,0,1.06,3.73,10.33,10.33,0,0,0,2.75,2.89,38.58,38.58,0,0,0,3.78,2.39q2.09,1.17,4.14,2.51a27.68,27.68,0,0,1,3.76,2.89,11.66,11.66,0,0,1,2.75,3.92,12.81,12.81,0,0,1,1.06,5.31,9.16,9.16,0,0,1-2.67,6.81,9.43,9.43,0,0,1-7,2.65,32.76,32.76,0,0,1-7.82-1A15.85,15.85,0,0,1,183.35,420.84Z"
     transform="translate(-42.85 -359.38)"
     id="path8"
     style="fill:#2858a5;fill-opacity:1" />
  <path
     class="cls-1"
     d="M232.85,382.71l3.28.28q.72,10.23.72,17.29,0,5.13-.28,11.68a36.26,36.26,0,0,1-.44,4.7,15.29,15.29,0,0,1-1.17,3.76,7.58,7.58,0,0,1-2.25,2.92,10.87,10.87,0,0,1-3.7,1.72,20.49,20.49,0,0,1-5.51.64,18.54,18.54,0,0,1-4.11-.41,11.43,11.43,0,0,1-3-1.09,6.56,6.56,0,0,1-2-1.75,9.75,9.75,0,0,1-1.31-2.25,13.13,13.13,0,0,1-.72-2.79c-.17-1.07-.29-2.09-.36-3.05s-.15-2.1-.22-3.4v-.22q-.28-6.78-.28-11.51,0-4,.33-16.13l3.06.67q.1,5.12.61,14.6t.67,13.48c0,1.26.09,2.27.17,3a14,14,0,0,0,.53,2.55,5.25,5.25,0,0,0,1.14,2.23,5.73,5.73,0,0,0,2.05,1.33,8.41,8.41,0,0,0,3.29.56,19.36,19.36,0,0,0,3.36-.25,5.58,5.58,0,0,0,2.34-.92,9.17,9.17,0,0,0,1.5-1.33,4.87,4.87,0,0,0,.92-2,21.67,21.67,0,0,0,.47-2.28c.09-.64.19-1.6.3-2.86q.39-4.79.45-15.46T232.85,382.71Z"
     transform="translate(-42.85 -359.38)"
     id="path10"
     style="fill:#2858a5;fill-opacity:1" />
  <path
     class="cls-1"
     d="M242.79,420.84l.78-3.09a20,20,0,0,0,9.51,2.61,11.21,11.21,0,0,0,5.7-1.36,4.74,4.74,0,0,0,2.37-4.44,7.37,7.37,0,0,0-2-5,21.09,21.09,0,0,0-4.84-4q-2.84-1.72-5.67-3.53a18.69,18.69,0,0,1-4.84-4.45,9.52,9.52,0,0,1-2-5.87,10.72,10.72,0,0,1,2.84-7.2,8.77,8.77,0,0,1,6.84-3.26,22.06,22.06,0,0,1,6.81,1.23,52.57,52.57,0,0,1,6.31,2.44l-.66,2.23A34.11,34.11,0,0,0,253.25,385a6.57,6.57,0,0,0-4.56,1.72,5.76,5.76,0,0,0-1.89,4.45,6.84,6.84,0,0,0,1,3.73,10.37,10.37,0,0,0,2.76,2.89,38.58,38.58,0,0,0,3.78,2.39q2.09,1.17,4.14,2.51a29,29,0,0,1,3.76,2.89,11.8,11.8,0,0,1,2.75,3.92,13,13,0,0,1,1.06,5.31,9.16,9.16,0,0,1-2.67,6.81,9.44,9.44,0,0,1-7,2.65,32.75,32.75,0,0,1-7.81-1A15.85,15.85,0,0,1,242.79,420.84Z"
     transform="translate(-42.85 -359.38)"
     id="path12"
     style="fill:#2858a5;fill-opacity:1" />
  <path
     class="cls-1"
     d="M282.34,383.65l4.17.28a153.05,153.05,0,0,0,6.4,19.5,182.82,182.82,0,0,1,6.39,18.82,4.27,4.27,0,0,1-.55,2.42,1.65,1.65,0,0,1-1.39.81,2,2,0,0,1-1.37-.58,3,3,0,0,1-.86-1.65,83.36,83.36,0,0,0-3.22-9.78q-11.42-1.46-14.36-1.78a66.71,66.71,0,0,0-1.78,6.5c-.7,3-1.25,5.08-1.66,6.23a2.43,2.43,0,0,1-1.89,1,2.53,2.53,0,0,1-2-1,3.94,3.94,0,0,1-.83-2.54q1.78-6.5,6.45-19.13T282.34,383.65Zm1.92,5.62Q283.15,396,278.1,409h6.22q4.21,0,7,.27Q285.65,397,284.26,389.27Z"
     transform="translate(-42.85 -359.38)"
     id="path14"
     style="fill:#2858a5;fill-opacity:1" />
  <path
     class="cls-1"
     d="M304.07,422.42l.72-38.49h3L326,418.47v-4.39q0-16.8.61-30.2l3.17.61q.62,12.08,1,39.77a6.24,6.24,0,0,1-2.45.5,8.23,8.23,0,0,1-3.95-1.12A165,165,0,0,1,316,408.35q-5-10.07-7.15-13.79.06,3.78.08,13.79t.2,15.18c-.34,1.15-1,1.73-1.95,1.73a2.82,2.82,0,0,1-1.92-.84A3.54,3.54,0,0,1,304.07,422.42Z"
     transform="translate(-42.85 -359.38)"
     id="path16"
     style="fill:#2858a5;fill-opacity:1" />
  <path
     class="cls-1"
     d="M337.19,422.42l.72-38.49h3l18.19,34.54v-4.39q0-16.8.61-30.2l3.17.61q.62,12.08,1,39.77a6.19,6.19,0,0,1-2.44.5,8.2,8.2,0,0,1-3.95-1.12,164.6,164.6,0,0,1-8.43-15.29q-5-10.07-7.15-13.79.06,3.78.09,13.79t.19,15.18c-.33,1.15-1,1.73-1.94,1.73a2.82,2.82,0,0,1-1.92-.84A3.43,3.43,0,0,1,337.19,422.42Z"
     transform="translate(-42.85 -359.38)"
     id="path18"
     style="fill:#2858a5;fill-opacity:1" />
  <path
     class="cls-1"
     d="M391.36,421.48l.56,2.5q-2.18,0-7.87.19c-3.8.13-6.56.2-8.26.2a26.41,26.41,0,0,1-5.62-.39q.56-6.12.67-20.47t.72-20q1.89.17,10,.28a96.38,96.38,0,0,1,10.65.5l.61,2.5c-1.67.3-5,.65-10,1.06s-7.64.63-7.9.66c0,.86.12,2.6.25,5.23s.22,4.8.25,6.51q1.89.22,6.9.64l6.34.53.56,2.56q-11.75,1.05-13.74,1.11c0,1.63,0,4.11-.08,7.42s-.09,5.76-.09,7.32Q388.08,421,391.36,421.48Z"
     transform="translate(-42.85 -359.38)"
     id="path20"
     style="fill:#2858a5;fill-opacity:1" />
  <path
     class="cls-1"
     d="M414.8,420.84l.78-3.09a20,20,0,0,0,9.51,2.61,11.21,11.21,0,0,0,5.7-1.36,4.74,4.74,0,0,0,2.37-4.44,7.37,7.37,0,0,0-2-5,21.09,21.09,0,0,0-4.84-4q-2.83-1.72-5.67-3.53a18.69,18.69,0,0,1-4.84-4.45,9.52,9.52,0,0,1-2-5.87,10.72,10.72,0,0,1,2.84-7.2,8.77,8.77,0,0,1,6.84-3.26,22.06,22.06,0,0,1,6.81,1.23,52.57,52.57,0,0,1,6.31,2.44l-.66,2.23A34.11,34.11,0,0,0,425.26,385a6.57,6.57,0,0,0-4.56,1.72,5.76,5.76,0,0,0-1.89,4.45,6.84,6.84,0,0,0,1.05,3.73,10.37,10.37,0,0,0,2.76,2.89,38.58,38.58,0,0,0,3.78,2.39q2.09,1.17,4.14,2.51a29,29,0,0,1,3.76,2.89,11.8,11.8,0,0,1,2.75,3.92,13,13,0,0,1,1.06,5.31,9.16,9.16,0,0,1-2.67,6.81,9.44,9.44,0,0,1-7,2.65,32.75,32.75,0,0,1-7.81-1A15.85,15.85,0,0,1,414.8,420.84Z"
     transform="translate(-42.85 -359.38)"
     id="path22"
     style="fill:#2858a5;fill-opacity:1" />
  <path
     class="cls-1"
     d="M443,405.35v-2.87q0-1,.09-3c.05-1.34.13-2.4.22-3.17s.23-1.79.42-3a13.76,13.76,0,0,1,.72-3c.29-.76.64-1.62,1-2.59a7,7,0,0,1,1.47-2.33,19.16,19.16,0,0,1,1.95-1.7,7.25,7.25,0,0,1,2.5-1.19,12.13,12.13,0,0,1,3.17-.39,12.6,12.6,0,0,1,6,1.36,11.26,11.26,0,0,1,4,3.42,16.56,16.56,0,0,1,2.31,5.06,30.07,30.07,0,0,1,1.11,5.73q.26,2.73.25,6c0,1.48,0,2.82-.08,4s-.17,2.53-.33,4a25.63,25.63,0,0,1-.73,4,21.15,21.15,0,0,1-1.3,3.48,10.51,10.51,0,0,1-2,2.89,8.74,8.74,0,0,1-2.86,1.86,9.88,9.88,0,0,1-3.84.73,18.48,18.48,0,0,1-5.92-.84,10.84,10.84,0,0,1-4.06-2.33,10.48,10.48,0,0,1-2.51-4,23.45,23.45,0,0,1-1.28-5.34A56.3,56.3,0,0,1,443,405.35Zm4.84-33.26a3.1,3.1,0,0,1,2.53,1.3,4.67,4.67,0,0,1,1,3,3.12,3.12,0,0,1-.58,2,1.91,1.91,0,0,1-1.59.75,2.86,2.86,0,0,1-2.47-1.28,5,5,0,0,1-.92-3,3.3,3.3,0,0,1,.53-2A1.69,1.69,0,0,1,447.8,372.09Zm16.41,33.7a40.1,40.1,0,0,0-.42-5.67,45.52,45.52,0,0,0-1.4-6.34,12.74,12.74,0,0,0-3.09-5.54,6.94,6.94,0,0,0-5.08-2.14q-2.24,0-3.93,3a21.55,21.55,0,0,0-2.43,6.67,36.66,36.66,0,0,0-.73,7q0,2.28,0,3.48c0,.8.09,1.93.2,3.39a23.71,23.71,0,0,0,.47,3.48,21.9,21.9,0,0,0,1,2.94,7.35,7.35,0,0,0,1.59,2.59,8.31,8.31,0,0,0,2.4,1.61,8.06,8.06,0,0,0,3.32.75q4.06-.21,6.08-4.56A25.16,25.16,0,0,0,464.21,405.79Zm-4.51-33.7a3.1,3.1,0,0,1,2.53,1.3,4.67,4.67,0,0,1,1,3,3.12,3.12,0,0,1-.58,2,1.91,1.91,0,0,1-1.59.75,2.88,2.88,0,0,1-2.47-1.28,5,5,0,0,1-.92-3,3.37,3.37,0,0,1,.53-2A1.69,1.69,0,0,1,459.7,372.09Z"
     transform="translate(-42.85 -359.38)"
     id="path24"
     style="fill:#2858a5;fill-opacity:1" />
  <path
     class="cls-1"
     d="M474.64,384.1l3.38.33q.84,8.52,1.62,35c2.47-.14,5.62-.22,9.43-.22s6.85-.06,9.15-.17a11.07,11.07,0,0,1,.47,2.67,21.13,21.13,0,0,0,.31,2.56q-7.29-.45-18.58-.44h-6.18q.28-8.24.31-22T474.64,384.1Z"
     transform="translate(-42.85 -359.38)"
     id="path26"
     style="fill:#2858a5;fill-opacity:1" />
  <path
     class="cls-1"
     d="M524.19,387.27,522,389.83a14.38,14.38,0,0,0-8.56-3.23,8.44,8.44,0,0,0-4.79,1.34,9.18,9.18,0,0,0-3,3.22A17.41,17.41,0,0,0,504,396a37.72,37.72,0,0,0-.72,5c-.1,1.41-.14,3.06-.14,4.95a22.64,22.64,0,0,0,1,6.31,18.91,18.91,0,0,0,3.47,6.6,7.13,7.13,0,0,0,5.68,3.05q3.5,0,10.73-3.67a29.84,29.84,0,0,1,1.89,3.51q-7,4.83-12.51,4.84a10.75,10.75,0,0,1-6.51-2.17,15.32,15.32,0,0,1-4.64-5.51,32.61,32.61,0,0,1-2.62-7,28.42,28.42,0,0,1-.92-6.92,43.92,43.92,0,0,1,.56-7,34.2,34.2,0,0,1,1.89-6.87,12.71,12.71,0,0,1,4-5.56,10.1,10.1,0,0,1,6.43-2.11,21.72,21.72,0,0,1,6.67,1.11A23.08,23.08,0,0,1,524.19,387.27Z"
     transform="translate(-42.85 -359.38)"
     id="path28"
     style="fill:#2858a5;fill-opacity:1" />
  <path
     class="cls-1"
     d="M548.08,384l3.22-.67a209.92,209.92,0,0,1,1.25,21.78q.26,13.92.53,18.43c-.33,1.15-1,1.73-1.94,1.73a2.82,2.82,0,0,1-1.92-.84,3.48,3.48,0,0,1-1.14-2c0-1.33,0-3.56,0-6.67v-11c-.82,0-2,.12-3.43.25s-2.81.23-4,.31-2.35.11-3.43.11-1.68,0-2.12-.06q.11,3.39.39,9.6c.18,4.13.31,7,.39,8.53-.34,1.15-1,1.73-1.93,1.73a2.79,2.79,0,0,1-1.9-.84,3.51,3.51,0,0,1-1.12-2q.16-4.79.3-18.58t.52-20.52l2.47.56c0,.11,0,.28,0,.53s0,.43,0,.58q.71,13.68.82,17.13l4-.36,4.75-.45L548,401s0-.18,0-.55,0-1.88,0-4.51S548.08,389.29,548.08,384Z"
     transform="translate(-42.85 -359.38)"
     id="path30"
     style="fill:#2858a5;fill-opacity:1" />
  <path
     class="cls-2"
     d="M192.46,444.52a5.74,5.74,0,0,0-4.72,2.13,9.12,9.12,0,0,0-1.72,5.87q0,3.92,1.66,5.93a5.82,5.82,0,0,0,4.78,2,12.52,12.52,0,0,0,2.62-.27q1.28-.27,2.64-.69v3a16,16,0,0,1-5.68.95,9.07,9.07,0,0,1-7.18-2.84c-1.67-1.88-2.51-4.59-2.51-8.1a13.11,13.11,0,0,1,1.22-5.81,8.64,8.64,0,0,1,3.52-3.82,10.64,10.64,0,0,1,5.4-1.32,13.47,13.47,0,0,1,6,1.36l-1.25,2.9a19.29,19.29,0,0,0-2.28-.89A8.16,8.16,0,0,0,192.46,444.52Z"
     transform="translate(-42.85 -359.38)"
     id="path32"
     style="fill:#43444a;fill-opacity:1" />
  <path
     class="cls-2"
     d="M205.2,463.14h-3.43V440.47h3.43Z"
     transform="translate(-42.85 -359.38)"
     id="path34"
     style="fill:#43444a;fill-opacity:1" />
  <path
     class="cls-2"
     d="M217,463.43a7.81,7.81,0,0,1-5.88-2.19,8.36,8.36,0,0,1-2.12-6,9.16,9.16,0,0,1,2-6.21,6.8,6.8,0,0,1,5.4-2.25,6.63,6.63,0,0,1,5,1.93,7.37,7.37,0,0,1,1.85,5.33v1.85H212.53a5.28,5.28,0,0,0,1.27,3.61,4.39,4.39,0,0,0,3.36,1.26,12.42,12.42,0,0,0,2.66-.27,13.76,13.76,0,0,0,2.64-.9v2.79a10.59,10.59,0,0,1-2.53.84A15.17,15.17,0,0,1,217,463.43Zm-.63-14.1a3.43,3.43,0,0,0-2.61,1,4.88,4.88,0,0,0-1.17,3h7.31a4.45,4.45,0,0,0-1-3A3.28,3.28,0,0,0,216.37,449.33Z"
     transform="translate(-42.85 -359.38)"
     id="path36"
     style="fill:#43444a;fill-opacity:1" />
  <path
     class="cls-2"
     d="M230.64,463.14,224.53,447h3.61l3.27,9.36a17.88,17.88,0,0,1,1,3.82h.12a26.45,26.45,0,0,1,1-3.82l3.28-9.36h3.64l-6.15,16.11Z"
     transform="translate(-42.85 -359.38)"
     id="path38"
     style="fill:#43444a;fill-opacity:1" />
  <path
     class="cls-2"
     d="M249.62,463.43a7.78,7.78,0,0,1-5.87-2.19,8.36,8.36,0,0,1-2.12-6,9.11,9.11,0,0,1,2-6.21,6.8,6.8,0,0,1,5.4-2.25,6.63,6.63,0,0,1,5,1.93,7.42,7.42,0,0,1,1.85,5.33v1.85H245.15a5.28,5.28,0,0,0,1.27,3.61,4.43,4.43,0,0,0,3.37,1.26,12.33,12.33,0,0,0,2.65-.27,13.84,13.84,0,0,0,2.65-.9v2.79a10.66,10.66,0,0,1-2.54.84A15.1,15.1,0,0,1,249.62,463.43Zm-.62-14.1a3.41,3.41,0,0,0-2.61,1,4.94,4.94,0,0,0-1.18,3h7.31a4.45,4.45,0,0,0-1-3A3.26,3.26,0,0,0,249,449.33Z"
     transform="translate(-42.85 -359.38)"
     id="path40"
     style="fill:#43444a;fill-opacity:1" />
  <path
     class="cls-2"
     d="M267.89,446.74a8.17,8.17,0,0,1,1.71.14l-.34,3.19a6.24,6.24,0,0,0-1.51-.17,4.36,4.36,0,0,0-3.33,1.34,4.83,4.83,0,0,0-1.28,3.48v8.42h-3.42V447h2.68l.45,2.84H263a6.34,6.34,0,0,1,2.09-2.29A5,5,0,0,1,267.89,446.74Z"
     transform="translate(-42.85 -359.38)"
     id="path42"
     style="fill:#43444a;fill-opacity:1" />
  <path
     class="cls-2"
     d="M279.28,457.5a6,6,0,0,1,.93-3.33,9.76,9.76,0,0,1,3.37-2.82,12.3,12.3,0,0,1-1.89-2.73,5.62,5.62,0,0,1-.5-2.31,4.26,4.26,0,0,1,1.58-3.49,6.5,6.5,0,0,1,4.24-1.28,6.1,6.1,0,0,1,4.06,1.24,4.18,4.18,0,0,1,1.47,3.36,5,5,0,0,1-1,3,10.58,10.58,0,0,1-3.28,2.71l5,4.87a13.07,13.07,0,0,0,2-4.58h3.53a16.14,16.14,0,0,1-3.26,6.75l4.38,4.24h-4.41L293.34,461a10.53,10.53,0,0,1-6.89,2.41,8,8,0,0,1-5.26-1.59A5.36,5.36,0,0,1,279.28,457.5Zm7.34,3a6.93,6.93,0,0,0,4.56-1.56l-5.58-5.49a7.25,7.25,0,0,0-2.12,1.85,3.47,3.47,0,0,0-.59,2,3,3,0,0,0,1,2.32A3.92,3.92,0,0,0,286.62,460.49Zm-2.17-14.06a3.26,3.26,0,0,0,.49,1.73,10.14,10.14,0,0,0,1.36,1.74,8.44,8.44,0,0,0,2.31-1.74,2.81,2.81,0,0,0,.66-1.82,1.93,1.93,0,0,0-.63-1.51,2.41,2.41,0,0,0-1.68-.57,2.7,2.7,0,0,0-1.83.59A2,2,0,0,0,284.45,446.43Z"
     transform="translate(-42.85 -359.38)"
     id="path44"
     style="fill:#43444a;fill-opacity:1" />
  <path
     class="cls-2"
     d="M317.19,463.43a7.78,7.78,0,0,1-5.87-2.19,8.36,8.36,0,0,1-2.12-6,9.11,9.11,0,0,1,2-6.21,6.8,6.8,0,0,1,5.4-2.25,6.63,6.63,0,0,1,5,1.93,7.42,7.42,0,0,1,1.85,5.33v1.85H312.72a5.28,5.28,0,0,0,1.27,3.61,4.43,4.43,0,0,0,3.37,1.26,12.33,12.33,0,0,0,2.65-.27,13.84,13.84,0,0,0,2.65-.9v2.79a10.66,10.66,0,0,1-2.54.84A15.1,15.1,0,0,1,317.19,463.43Zm-.62-14.1a3.45,3.45,0,0,0-2.62,1,5,5,0,0,0-1.17,3h7.31a4.45,4.45,0,0,0-1-3A3.26,3.26,0,0,0,316.57,449.33Z"
     transform="translate(-42.85 -359.38)"
     id="path46"
     style="fill:#43444a;fill-opacity:1" />
  <path
     class="cls-2"
     d="M341.46,463.14H338v-9.91a4.33,4.33,0,0,0-.76-2.78,2.9,2.9,0,0,0-2.38-.92,3.8,3.8,0,0,0-3.17,1.28,7.1,7.1,0,0,0-1,4.3v8h-3.42V447H330l.48,2.11h.18a4.73,4.73,0,0,1,2.06-1.78,6.93,6.93,0,0,1,3-.62q5.8,0,5.8,5.89Z"
     transform="translate(-42.85 -359.38)"
     id="path48"
     style="fill:#43444a;fill-opacity:1" />
  <path
     class="cls-2"
     d="M352,460.66a8.42,8.42,0,0,0,2.51-.39v2.58a7.19,7.19,0,0,1-1.47.41,10.21,10.21,0,0,1-1.86.17q-4.86,0-4.86-5.13v-8.68h-2.2v-1.51l2.36-1.26,1.17-3.41h2.11V447h4.59v2.59h-4.59v8.62a2.38,2.38,0,0,0,.62,1.83A2.26,2.26,0,0,0,352,460.66Z"
     transform="translate(-42.85 -359.38)"
     id="path50"
     style="fill:#43444a;fill-opacity:1" />
  <path
     class="cls-2"
     d="M368.84,458.55a4.21,4.21,0,0,1-1.72,3.62,8.2,8.2,0,0,1-4.92,1.26,11.61,11.61,0,0,1-5.17-1V459.5a12.72,12.72,0,0,0,5.29,1.31c2.1,0,3.16-.64,3.16-1.91a1.52,1.52,0,0,0-.35-1A4.37,4.37,0,0,0,364,457a21,21,0,0,0-2.23-1,10.34,10.34,0,0,1-3.77-2.15,4,4,0,0,1-1-2.8,3.67,3.67,0,0,1,1.67-3.21,7.92,7.92,0,0,1,4.54-1.14,12.8,12.8,0,0,1,5.37,1.15l-1.11,2.57a12.06,12.06,0,0,0-4.38-1.07c-1.81,0-2.71.51-2.71,1.54a1.53,1.53,0,0,0,.71,1.28,15.62,15.62,0,0,0,3.08,1.45,14,14,0,0,1,2.9,1.41,4.34,4.34,0,0,1,1.34,1.48A4.25,4.25,0,0,1,368.84,458.55Z"
     transform="translate(-42.85 -359.38)"
     id="path52"
     style="fill:#43444a;fill-opacity:1" />
  <path
     class="cls-2"
     d="M380.61,463.43a5.68,5.68,0,0,1-4.75-2.2h-.2c.14,1.36.2,2.18.2,2.47v6.6h-3.42V447h2.77c.08.3.24,1,.48,2.15h.17a5.37,5.37,0,0,1,4.81-2.44,5.58,5.58,0,0,1,4.7,2.18,12,12,0,0,1,0,12.29A5.64,5.64,0,0,1,380.61,463.43Zm-.83-13.9a3.56,3.56,0,0,0-3,1.2,6.22,6.22,0,0,0-.94,3.81v.51a7.54,7.54,0,0,0,.94,4.26,3.45,3.45,0,0,0,3,1.32,3.07,3.07,0,0,0,2.74-1.46,7.52,7.52,0,0,0,1-4.15,7.33,7.33,0,0,0-1-4.1A3.21,3.21,0,0,0,379.78,449.53Z"
     transform="translate(-42.85 -359.38)"
     id="path54"
     style="fill:#43444a;fill-opacity:1" />
  <path
     class="cls-2"
     d="M401,463.14l-.68-2.25h-.12a6.68,6.68,0,0,1-2.34,2,7.52,7.52,0,0,1-3,.53,5.16,5.16,0,0,1-3.71-1.28,4.81,4.81,0,0,1-1.33-3.63,4.28,4.28,0,0,1,1.85-3.76,10.73,10.73,0,0,1,5.64-1.38l2.78-.09v-.86a3.26,3.26,0,0,0-.72-2.31,3,3,0,0,0-2.24-.76,7.78,7.78,0,0,0-2.37.36,17.48,17.48,0,0,0-2.19.86l-1.11-2.45a12.37,12.37,0,0,1,2.87-1,13.68,13.68,0,0,1,2.95-.35,7,7,0,0,1,4.64,1.34,5.24,5.24,0,0,1,1.56,4.2v10.86Zm-5.09-2.33a4.25,4.25,0,0,0,3-1,3.8,3.8,0,0,0,1.13-2.93v-1.39l-2.07.08a7.14,7.14,0,0,0-3.52.81,2.47,2.47,0,0,0-1.1,2.21,2.19,2.19,0,0,0,.64,1.67A2.79,2.79,0,0,0,395.91,460.81Z"
     transform="translate(-42.85 -359.38)"
     id="path56"
     style="fill:#43444a;fill-opacity:1" />
  <path
     class="cls-2"
     d="M422.17,463.14h-3.44v-9.91a4.33,4.33,0,0,0-.75-2.78,2.91,2.91,0,0,0-2.38-.92,3.8,3.8,0,0,0-3.18,1.28,7.1,7.1,0,0,0-1,4.3v8H408V447h2.68l.49,2.11h.17a4.71,4.71,0,0,1,2.07-1.78,6.87,6.87,0,0,1,3-.62c3.86,0,5.8,2,5.8,5.89Z"
     transform="translate(-42.85 -359.38)"
     id="path58"
     style="fill:#43444a;fill-opacity:1" />
  <path
     class="cls-2"
     d="M440.88,463.14h-3.43v-9.91a4.33,4.33,0,0,0-.75-2.78,2.92,2.92,0,0,0-2.39-.92,3.8,3.8,0,0,0-3.17,1.28,7.1,7.1,0,0,0-1,4.3v8h-3.42V447h2.68l.48,2.11h.18a4.73,4.73,0,0,1,2.06-1.78,6.94,6.94,0,0,1,3-.62q5.79,0,5.79,5.89Z"
     transform="translate(-42.85 -359.38)"
     id="path60"
     style="fill:#43444a;fill-opacity:1" />
  <path
     class="cls-2"
     d="M451.41,460.66a8.42,8.42,0,0,0,2.51-.39v2.58a7.19,7.19,0,0,1-1.47.41,10.1,10.1,0,0,1-1.85.17q-4.87,0-4.87-5.13v-8.68h-2.2v-1.51l2.36-1.26,1.17-3.41h2.11V447h4.59v2.59h-4.59v8.62a2.38,2.38,0,0,0,.62,1.83A2.26,2.26,0,0,0,451.41,460.66Z"
     transform="translate(-42.85 -359.38)"
     id="path62"
     style="fill:#43444a;fill-opacity:1" />
  <path
     class="cls-2"
     d="M468.31,463.14h-3.43V440.47h3.43Z"
     transform="translate(-42.85 -359.38)"
     id="path64"
     style="fill:#43444a;fill-opacity:1" />
  <path
     class="cls-2"
     d="M480.11,463.43a7.81,7.81,0,0,1-5.88-2.19,8.36,8.36,0,0,1-2.12-6,9.16,9.16,0,0,1,2-6.21,6.8,6.8,0,0,1,5.4-2.25,6.63,6.63,0,0,1,5,1.93,7.37,7.37,0,0,1,1.85,5.33v1.85H475.64a5.28,5.28,0,0,0,1.27,3.61,4.39,4.39,0,0,0,3.36,1.26,12.42,12.42,0,0,0,2.66-.27,13.76,13.76,0,0,0,2.64-.9v2.79a10.59,10.59,0,0,1-2.53.84A15.17,15.17,0,0,1,480.11,463.43Zm-.63-14.1a3.43,3.43,0,0,0-2.61,1,4.88,4.88,0,0,0-1.17,3H483a4.45,4.45,0,0,0-1-3A3.28,3.28,0,0,0,479.48,449.33Z"
     transform="translate(-42.85 -359.38)"
     id="path66"
     style="fill:#43444a;fill-opacity:1" />
  <path
     class="cls-2"
     d="M498.38,446.74a8.06,8.06,0,0,1,1.7.14l-.33,3.19a6.38,6.38,0,0,0-1.52-.17,4.36,4.36,0,0,0-3.33,1.34,4.83,4.83,0,0,0-1.27,3.48v8.42h-3.42V447h2.68l.45,2.84h.17a6.42,6.42,0,0,1,2.09-2.29A5,5,0,0,1,498.38,446.74Z"
     transform="translate(-42.85 -359.38)"
     id="path68"
     style="fill:#43444a;fill-opacity:1" />
  <path
     class="cls-2"
     d="M517.15,463.14h-3.44v-9.91a4.33,4.33,0,0,0-.75-2.78,2.9,2.9,0,0,0-2.38-.92,3.78,3.78,0,0,0-3.17,1.28,7.1,7.1,0,0,0-1,4.3v8H503V447h2.68l.48,2.11h.17a4.82,4.82,0,0,1,2.07-1.78,6.87,6.87,0,0,1,3-.62q5.8,0,5.8,5.89Z"
     transform="translate(-42.85 -359.38)"
     id="path70"
     style="fill:#43444a;fill-opacity:1" />
  <path
     class="cls-2"
     d="M528.81,463.43a7.78,7.78,0,0,1-5.87-2.19,8.36,8.36,0,0,1-2.12-6,9.11,9.11,0,0,1,2-6.21,6.8,6.8,0,0,1,5.4-2.25,6.63,6.63,0,0,1,5,1.93,7.42,7.42,0,0,1,1.85,5.33v1.85H524.34a5.28,5.28,0,0,0,1.27,3.61,4.43,4.43,0,0,0,3.37,1.26,12.33,12.33,0,0,0,2.65-.27,13.84,13.84,0,0,0,2.65-.9v2.79a10.66,10.66,0,0,1-2.54.84A15.1,15.1,0,0,1,528.81,463.43Zm-.62-14.1a3.45,3.45,0,0,0-2.62,1,5,5,0,0,0-1.17,3h7.31a4.45,4.45,0,0,0-1-3A3.26,3.26,0,0,0,528.19,449.33Z"
     transform="translate(-42.85 -359.38)"
     id="path72"
     style="fill:#43444a;fill-opacity:1" />
  <path
     class="cls-2"
     d="M553.08,463.14h-3.43v-9.91a4.33,4.33,0,0,0-.76-2.78,2.89,2.89,0,0,0-2.38-.92,3.8,3.8,0,0,0-3.17,1.28,7.1,7.1,0,0,0-1,4.3v8h-3.42V447h2.68l.48,2.11h.18a4.73,4.73,0,0,1,2.06-1.78,6.94,6.94,0,0,1,3-.62q5.79,0,5.79,5.89Z"
     transform="translate(-42.85 -359.38)"
     id="path74"
     style="fill:#43444a;fill-opacity:1" />
  <path
     class="cls-2"
     d="M119.61,439.54c0-.21.08-.42.13-.64C119.69,439.12,119.64,439.33,119.61,439.54Z"
     transform="translate(-42.85 -359.38)"
     id="path76" />
  <path
     class="cls-2"
     d="M119.45,441.48c0-.17,0-.34,0-.51C119.46,441.14,119.45,441.31,119.45,441.48Z"
     transform="translate(-42.85 -359.38)"
     id="path78" />
  <path
     class="cls-2"
     d="M119.62,443.35l-.06-.4Z"
     transform="translate(-42.85 -359.38)"
     id="path80" />
  <path
     class="cls-2"
     d="M119.49,440.52c0-.19,0-.38.06-.56C119.53,440.14,119.5,440.33,119.49,440.52Z"
     transform="translate(-42.85 -359.38)"
     id="path82" />
  <path
     class="cls-2"
     d="M119.5,442.43a3.55,3.55,0,0,1,0-.46A3.55,3.55,0,0,0,119.5,442.43Z"
     transform="translate(-42.85 -359.38)"
     id="path84" />
  <path
     class="cls-2"
     d="M119.81,444.23c0-.11,0-.21-.08-.32C119.76,444,119.79,444.12,119.81,444.23Z"
     transform="translate(-42.85 -359.38)"
     id="path86" />
  <path
     class="cls-2"
     d="M69.78,408.78a10.66,10.66,0,0,1,1.6-.1A10.66,10.66,0,0,0,69.78,408.78Z"
     transform="translate(-42.85 -359.38)"
     id="path88" />
  <path
     class="cls-2"
     d="M125.61,451.43c-.25-.12-.48-.26-.72-.4C125.12,451.17,125.36,451.31,125.61,451.43Z"
     transform="translate(-42.85 -359.38)"
     id="path90" />
  <path
     class="cls-2"
     d="M120.06,445.05l-.07-.21Z"
     transform="translate(-42.85 -359.38)"
     id="path92" />
  <path
     class="cls-2"
     d="M136.08,431.63a6,6,0,0,1,.54.33A6,6,0,0,0,136.08,431.63Z"
     transform="translate(-42.85 -359.38)"
     id="path94" />
  <path
     class="cls-2"
     d="M119.82,438.57a9.16,9.16,0,0,1,.3-1A9.16,9.16,0,0,0,119.82,438.57Z"
     transform="translate(-42.85 -359.38)"
     id="path96" />
  <path
     class="cls-2"
     d="M104.58,359.38A61.73,61.73,0,1,0,166.3,421.1,61.72,61.72,0,0,0,104.58,359.38ZM153.72,439c-1.07,2.94-14.3,1.87-17.78,1.53a37.16,37.16,0,0,1-2.39,3.41c1.49,3.13,7,15.22,4.64,17.23s-13.3-5.52-16.15-7.55a37.3,37.3,0,0,1-3.79,1.77c-.28,3.5-1.52,16.68-4.59,17.22s-8.75-11.4-10.2-14.6a34.69,34.69,0,0,1-4.18-.37c-2,2.89-9.65,13.68-12.59,12.61S84.82,456,85.16,452.49a36.38,36.38,0,0,1-3.44-2.4c-3.18,1.51-15.2,7-17.2,4.63s5.52-13.3,7.55-16.15a36.19,36.19,0,0,1-1.77-3.79c-3.5-.28-16.68-1.52-17.23-4.6S64.54,421.41,67.7,420a36.71,36.71,0,0,1,.37-4.16c-2.87-2-13.71-9.65-12.64-12.59s14.22-1.88,17.74-1.54a34.61,34.61,0,0,1,2.43-3.42c-1.51-3.16-7-15.21-4.64-17.22s13.36,5.56,16.17,7.57a39.17,39.17,0,0,1,3.77-1.76c.27-3.45,1.51-16.7,4.59-17.25s8.76,11.43,10.21,14.62a36.79,36.79,0,0,1,4.18.34c2-2.9,9.65-13.67,12.58-12.6s1.87,14.22,1.54,17.74a36.26,36.26,0,0,1,3.42,2.42c3.16-1.5,15.21-7,17.22-4.63s-5.56,13.35-7.57,16.17a36.83,36.83,0,0,1,1.75,3.77c3.46.27,16.71,1.51,17.26,4.59s-11.44,8.76-14.62,10.21a34.82,34.82,0,0,1-.35,4.18C144,428.41,154.79,436.06,153.72,439Z"
     transform="translate(-42.85 -359.38)"
     id="path98"
     style="fill:#2858a5;fill-opacity:1" />
  <path
     class="cls-2"
     d="M138.39,433.33c.26.25.51.49.74.75A10.46,10.46,0,0,0,138.39,433.33Z"
     transform="translate(-42.85 -359.38)"
     id="path100" />
  <path
     class="cls-2"
     d="M134.49,430.89a11.87,11.87,0,0,1,1.14.5A11.87,11.87,0,0,0,134.49,430.89Z"
     transform="translate(-42.85 -359.38)"
     id="path102" />
  <path
     class="cls-1"
     d="M124,389.7c.33-3.52,1.39-16.67-1.54-17.74s-10.58,9.7-12.58,12.6A37.25,37.25,0,0,1,124,389.7Z"
     transform="translate(-42.85 -359.38)"
     id="path104" />
  <path
     class="cls-1"
     d="M105.7,384.22c-1.45-3.19-7.13-15.16-10.21-14.62s-4.32,13.8-4.59,17.25A36.75,36.75,0,0,1,105.7,384.22Z"
     transform="translate(-42.85 -359.38)"
     id="path106" />
  <path
     class="cls-1"
     d="M87.13,388.61C84.32,386.6,73.36,379,71,381s3.13,14.06,4.64,17.22A36.81,36.81,0,0,1,87.13,388.61Z"
     transform="translate(-42.85 -359.38)"
     id="path108" />
  <path
     class="cls-1"
     d="M72.07,438.57c-2,2.85-9.57,13.75-7.55,16.15s14-3.12,17.2-4.63A36.77,36.77,0,0,1,72.07,438.57Z"
     transform="translate(-42.85 -359.38)"
     id="path110" />
  <path
     class="cls-1"
     d="M85.16,452.49c-.34,3.51-1.4,16.69,1.53,17.75s10.6-9.72,12.59-12.61a36.22,36.22,0,0,1-14.12-5.14Z"
     transform="translate(-42.85 -359.38)"
     id="path112" />
  <path
     class="cls-1"
     d="M103.46,458c1.45,3.2,7.12,15.15,10.2,14.6s4.31-13.72,4.59-17.22A36.73,36.73,0,0,1,103.46,458Z"
     transform="translate(-42.85 -359.38)"
     id="path114" />
  <path
     class="cls-1"
     d="M141.46,422.23c3.18-1.45,15.16-7.13,14.62-10.21s-13.8-4.32-17.26-4.59A36.76,36.76,0,0,1,141.46,422.23Z"
     transform="translate(-42.85 -359.38)"
     id="path116" />
  <path
     class="cls-1"
     d="M137.07,403.66c2-2.82,9.58-13.77,7.57-16.17s-14.06,3.13-17.22,4.63A36.85,36.85,0,0,1,137.07,403.66Z"
     transform="translate(-42.85 -359.38)"
     id="path118" />
  <path
     class="cls-3"
     d="M138.82,407.43a36.87,36.87,0,0,0-11.4-15.31A36.26,36.26,0,0,0,124,389.7a37.25,37.25,0,0,0-14.12-5.14,37.6,37.6,0,0,0-19,2.29,39.17,39.17,0,0,0-3.77,1.76,36.81,36.81,0,0,0-11.53,9.65,34.61,34.61,0,0,0-2.43,3.42,37.17,37.17,0,0,0-3.29,6.8c0,.1-.06.2-.1.3a10.66,10.66,0,0,1,1.6-.1h.15A11.19,11.19,0,1,1,70.47,431a9.93,9.93,0,0,1-1.51-.2,37.21,37.21,0,0,0,1.34,4,36.19,36.19,0,0,0,1.77,3.79,36.77,36.77,0,0,0,9.65,11.52,36.38,36.38,0,0,0,3.44,2.4,36.22,36.22,0,0,0,14.12,5.14,34.69,34.69,0,0,0,4.18.37,36.73,36.73,0,0,0,14.79-2.62,37.3,37.3,0,0,0,3.79-1.77,36.22,36.22,0,0,0,3.57-2.18c-.25-.12-.49-.26-.72-.4a11.22,11.22,0,0,1-4.83-6l-.07-.21c-.07-.2-.12-.4-.18-.61s0-.21-.08-.32-.08-.37-.11-.56l-.06-.4a4.6,4.6,0,0,1-.06-.52,3.55,3.55,0,0,1,0-.46c0-.16,0-.33,0-.49s0-.34,0-.51,0-.3,0-.45,0-.38.06-.56,0-.28.06-.42.08-.42.13-.64.05-.22.08-.33a9.16,9.16,0,0,1,.3-1,11.21,11.21,0,0,1,14.37-6.7,11.87,11.87,0,0,1,1.14.5l.45.24a6,6,0,0,1,.54.33,10.85,10.85,0,0,1,1.77,1.37,10.46,10.46,0,0,1,.74.75l.14-.35a36.52,36.52,0,0,0,1.84-7.32,34.82,34.82,0,0,0,.35-4.18A36.76,36.76,0,0,0,138.82,407.43Zm-52.31,1.43a.53.53,0,0,1-.7.27.51.51,0,0,1-.27-.69,5.87,5.87,0,0,1,.66-1L85,406.52a.53.53,0,0,1-.1-.74.54.54,0,0,1,.74-.11l1.36,1a5.19,5.19,0,0,1,5.32-.6c4.88,1.77,3.68,6.08,3.67,6.13a.53.53,0,0,1-.51.38l-.14,0a.53.53,0,0,1-.36-.66c0-.14.92-3.41-3-4.84S86.56,408.73,86.51,408.86Zm28.87,25.35a1.65,1.65,0,0,1-1.75,1.06c-1.61,2.65-5.42,7.48-11.76,7.48a14.75,14.75,0,0,1-5-.94c-9.39-3.4-9.23-12-8.65-15.79a1.64,1.64,0,0,1-.73-2,1.67,1.67,0,1,1,1.86,2.19c-.57,3.51-.76,11.33,7.93,14.47s13.49-2.87,15.33-5.94a1.66,1.66,0,1,1,2.79-.55Zm13.23-11.82h0l-1.48-.08a5.52,5.52,0,0,1-.13,1.21.53.53,0,0,1-.51.38.32.32,0,0,1-.14,0,.54.54,0,0,1-.37-.65,3.9,3.9,0,0,0,.08-1.47v0h0c-.15-1.1-.82-2.52-3.08-3.34-4-1.43-5.36,1.64-5.42,1.77a.52.52,0,1,1-1-.42s1.87-4.1,6.74-2.34a5.18,5.18,0,0,1,3.7,3.86l1.64.09a.53.53,0,0,1,0,1.05Z"
     transform="translate(-42.85 -359.38)"
     id="path120" />
  <path
     class="cls-1"
     d="M125.61,451.43a36.22,36.22,0,0,1-3.57,2.18c2.85,2,13.75,9.56,16.15,7.55s-3.15-14.1-4.64-17.23A36.63,36.63,0,0,1,125.61,451.43Z"
     transform="translate(-42.85 -359.38)"
     id="path122" />
  <path
     class="cls-1"
     d="M139.13,434.08a36.78,36.78,0,0,1-3.19,6.44c3.48.34,16.71,1.41,17.78-1.53s-9.7-10.58-12.61-12.58a36.52,36.52,0,0,1-1.84,7.32Z"
     transform="translate(-42.85 -359.38)"
     id="path124" />
  <path
     class="cls-4"
     d="M138.39,433.33a10.85,10.85,0,0,0-1.77-1.37,6,6,0,0,0-.54-.33l-.45-.24a11.87,11.87,0,0,0-1.14-.5,11.21,11.21,0,0,0-14.37,6.7,9.16,9.16,0,0,0-.3,1c0,.11,0,.22-.08.33s-.1.43-.13.64,0,.28-.06.42,0,.37-.06.56,0,.3,0,.45,0,.34,0,.51,0,.33,0,.49a3.55,3.55,0,0,0,0,.46,4.6,4.6,0,0,0,.06.52l.06.4c0,.19.07.37.11.56s.06.21.08.32.11.41.18.61l.07.21a11.22,11.22,0,0,0,4.83,6c.24.14.47.28.72.4a36.63,36.63,0,0,0,7.94-7.5,37.16,37.16,0,0,0,2.39-3.41,36.78,36.78,0,0,0,3.19-6.44C138.9,433.82,138.65,433.58,138.39,433.33Z"
     transform="translate(-42.85 -359.38)"
     id="path126" />
  <path
     class="cls-1"
     d="M67.7,420c-3.16,1.44-15.17,7.13-14.63,10.21s13.73,4.32,17.23,4.6a37.21,37.21,0,0,1-1.34-4A36.69,36.69,0,0,1,67.7,420Z"
     transform="translate(-42.85 -359.38)"
     id="path128" />
  <path
     class="cls-1"
     d="M69.88,408.48a37.17,37.17,0,0,1,3.29-6.8c-3.52-.34-16.67-1.39-17.74,1.54s9.77,10.62,12.64,12.59a37.12,37.12,0,0,1,1.71-7C69.82,408.68,69.85,408.58,69.88,408.48Z"
     transform="translate(-42.85 -359.38)"
     id="path130" />
  <path
     class="cls-4"
     d="M70.47,431a11.19,11.19,0,1,0,1.06-22.33h-.15a10.66,10.66,0,0,0-1.6.1,37.12,37.12,0,0,0-1.71,7,37,37,0,0,0,.89,15A9.93,9.93,0,0,0,70.47,431Z"
     transform="translate(-42.85 -359.38)"
     id="path132" />
  <path
     class="cls-5"
     d="M114.38,432.07a1.66,1.66,0,0,0-1.79,2.69c-1.84,3.07-6.7,9.06-15.33,5.94s-8.5-11-7.93-14.47a1.65,1.65,0,0,0,1.28-1.05A1.67,1.67,0,1,0,87.47,424a1.64,1.64,0,0,0,.73,2c-.58,3.81-.74,12.39,8.65,15.79a14.75,14.75,0,0,0,5,.94c6.34,0,10.15-4.83,11.76-7.48a1.65,1.65,0,0,0,1.75-1.06A1.68,1.68,0,0,0,114.38,432.07Z"
     transform="translate(-42.85 -359.38)"
     id="path134" />
  <path
     class="cls-5"
     d="M91.93,407.09c3.93,1.43,3,4.7,3,4.84a.53.53,0,0,0,.36.66l.14,0a.53.53,0,0,0,.51-.38c0-.05,1.21-4.36-3.67-6.13a5.19,5.19,0,0,0-5.32.6l-1.36-1a.54.54,0,0,0-.74.11.53.53,0,0,0,.1.74l1.24.92a5.87,5.87,0,0,0-.66,1,.51.51,0,0,0,.27.69.53.53,0,0,0,.7-.27C86.56,408.73,88,405.66,91.93,407.09Z"
     transform="translate(-42.85 -359.38)"
     id="path136" />
  <path
     class="cls-5"
     d="M128.64,421.34l-1.64-.09a5.18,5.18,0,0,0-3.7-3.86c-4.87-1.76-6.72,2.3-6.74,2.34a.52.52,0,1,0,1,.42c.06-.13,1.46-3.2,5.42-1.77,2.26.82,2.93,2.24,3.08,3.34h0v0a3.9,3.9,0,0,1-.08,1.47.54.54,0,0,0,.37.65.32.32,0,0,0,.14,0,.53.53,0,0,0,.51-.38,5.52,5.52,0,0,0,.13-1.21l1.48.08h0a.53.53,0,0,0,0-1.05Z"
     transform="translate(-42.85 -359.38)"
     id="path138" />
</svg>
