<?xml version="1.0" encoding="UTF-8" standalone="no"?>
<svg
   xmlns:dc="http://purl.org/dc/elements/1.1/"
   xmlns:cc="http://creativecommons.org/ns#"
   xmlns:rdf="http://www.w3.org/1999/02/22-rdf-syntax-ns#"
   xmlns:svg="http://www.w3.org/2000/svg"
   xmlns="http://www.w3.org/2000/svg"
   xmlns:sodipodi="http://sodipodi.sourceforge.net/DTD/sodipodi-0.dtd"
   xmlns:inkscape="http://www.inkscape.org/namespaces/inkscape"
   id="Ebene_1"
   data-name="Ebene 1"
   viewBox="0 0 603.02345 123.46"
   version="1.1"
   sodipodi:docname="SusanneSoelch_Logo_quer.svg"
   width="603.02344"
   height="123.46"
   inkscape:version="0.92.4 (5da689c313, 2019-01-14)">
  <metadata
     id="metadata143">
    <rdf:RDF>
      <cc:Work
         rdf:about="">
        <dc:format>image/svg+xml</dc:format>
        <dc:type
           rdf:resource="http://purl.org/dc/dcmitype/StillImage" />
        <dc:title>SusanneSoelch_Logo_quer</dc:title>
      </cc:Work>
    </rdf:RDF>
  </metadata>
  <sodipodi:namedview
     pagecolor="#ffffff"
     bordercolor="#666666"
     borderopacity="1"
     objecttolerance="10"
     gridtolerance="10"
     guidetolerance="10"
     inkscape:pageopacity="0"
     inkscape:pageshadow="2"
     inkscape:window-width="2560"
     inkscape:window-height="1371"
     id="namedview141"
     showgrid="false"
     showguides="true"
     inkscape:guide-bbox="true"
     fit-margin-top="0"
     fit-margin-left="0"
     fit-margin-right="0"
     fit-margin-bottom="0"
     inkscape:zoom="1.4934149"
     inkscape:cx="206.70317"
     inkscape:cy="-88.141501"
     inkscape:window-x="0"
     inkscape:window-y="27"
     inkscape:window-maximized="1"
     inkscape:current-layer="Ebene_1" />
  <defs
     id="defs4">
    <style
       id="style2">.cls-1{fill:#de6411;}.cls-2{fill:#00a9d4;}.cls-3{fill:#ec0;}.cls-4{fill:#f6a723;}.cls-5{fill:#43434a;}</style>
  </defs>
  <title
     id="title6">SusanneSoelch_Logo_quer</title>
  <path
     style="fill:#efcd00;stroke-width:1.25324678;fill-opacity:1"
     inkscape:connector-curvature="0"
     class="cls-1"
     d="m 139.62291,61.370163 0.97753,-3.872532 a 25.064936,25.064936 0 0 0 11.91838,3.270974 14.023832,14.023832 0 0 0 7.1435,-1.704416 5.9403898,5.9403898 0 0 0 2.9702,-5.564416 9.2865588,9.2865588 0 0 0 -2.5065,-6.266234 26.969871,26.969871 0 0 0 -6.06571,-5.012987 q -3.55922,-2.155584 -7.11844,-4.423961 a 23.172533,23.172533 0 0 1 -6.05318,-5.576948 11.868247,11.868247 0 0 1 -2.5065,-7.356559 13.434806,13.434806 0 0 1 3.55922,-9.023377 10.990974,10.990974 0 0 1 8.57221,-4.085584 27.646624,27.646624 0 0 1 8.53461,1.541493 66.158899,66.158899 0 0 1 7.92052,3.057922 l -0.83967,2.794741 a 42.748248,42.748248 0 0 0 -13.39721,-2.694481 8.2338315,8.2338315 0 0 0 -5.71481,2.155584 7.2187016,7.2187016 0 0 0 -2.36863,5.576949 8.4719484,8.4719484 0 0 0 1.32844,4.67461 12.946039,12.946039 0 0 0 3.44643,3.621884 48.350262,48.350262 0 0 0 4.73727,2.995259 q 2.61929,1.466299 5.18844,3.14565 a 34.689871,34.689871 0 0 1 4.71221,3.621883 14.612858,14.612858 0 0 1 3.44643,4.912728 16.054092,16.054092 0 0 1 1.32844,6.65474 11.479741,11.479741 0 0 1 -3.34617,8.534611 11.818117,11.818117 0 0 1 -8.77273,3.321104 41.056365,41.056365 0 0 1 -9.80039,-1.253247 19.863962,19.863962 0 0 1 -7.29389,-3.04539 z"
     id="path8" />
  <path
     style="fill:#efcd00;stroke-width:1.25324678;fill-opacity:1"
     inkscape:connector-curvature="0"
     class="cls-1"
     d="m 201.65862,13.583863 4.11065,0.350909 q 0.90234,12.820715 0.90234,21.668637 0,6.429156 -0.35091,14.637923 a 45.442729,45.442729 0 0 1 -0.55143,5.89026 19.162144,19.162144 0 0 1 -1.4663,4.712208 9.4996107,9.4996107 0 0 1 -2.8198,3.65948 13.622793,13.622793 0 0 1 -4.63701,2.155585 25.679027,25.679027 0 0 1 -6.90539,0.802078 23.235196,23.235196 0 0 1 -5.15085,-0.513831 14.324611,14.324611 0 0 1 -3.75974,-1.366039 8.221299,8.221299 0 0 1 -2.50649,-2.193182 12.219156,12.219156 0 0 1 -1.64176,-2.819806 16.45513,16.45513 0 0 1 -0.90233,-3.496558 c -0.21306,-1.340974 -0.36345,-2.619286 -0.45117,-3.822403 -0.0877,-1.203117 -0.18799,-2.631818 -0.27572,-4.261039 V 48.712371 Q 174.9018,40.215357 174.9018,34.2875 q 0,-5.012987 0.41358,-20.214871 l 3.83493,0.839675 q 0.12533,6.416624 0.76448,18.297404 0.63916,11.880779 0.83968,16.893767 c 0,1.579091 0.11279,2.84487 0.21305,3.75974 a 17.545455,17.545455 0 0 0 0.66422,3.195779 6.5795457,6.5795457 0 0 0 1.4287,2.794741 7.1811042,7.1811042 0 0 0 2.56916,1.666818 10.539806,10.539806 0 0 0 4.12318,0.701818 24.262858,24.262858 0 0 0 4.21091,-0.313312 6.9931171,6.9931171 0 0 0 2.9326,-1.152987 11.492273,11.492273 0 0 0 1.87987,-1.666818 6.1033119,6.1033119 0 0 0 1.15298,-2.506493 27.157858,27.157858 0 0 0 0.58903,-2.857403 c 0.11279,-0.802078 0.23812,-2.005195 0.37597,-3.584286 q 0.48877,-6.003052 0.56396,-19.375196 0.0752,-13.372143 0.20052,-17.182013 z"
     id="path10" />
  <path
     style="fill:#efcd00;stroke-width:1.25324678;fill-opacity:1"
     inkscape:connector-curvature="0"
     class="cls-1"
     d="m 214.1159,61.370163 0.97753,-3.872532 a 25.064936,25.064936 0 0 0 11.91838,3.270974 14.048897,14.048897 0 0 0 7.1435,-1.704416 5.9403898,5.9403898 0 0 0 2.9702,-5.564416 9.2364289,9.2364289 0 0 0 -2.5065,-6.266234 26.430975,26.430975 0 0 0 -6.06571,-5.012987 q -3.55922,-2.155584 -7.10591,-4.423961 a 23.423183,23.423183 0 0 1 -6.06571,-5.576948 11.93091,11.93091 0 0 1 -2.5065,-7.356559 13.434806,13.434806 0 0 1 3.55922,-9.023377 10.990974,10.990974 0 0 1 8.57221,-4.085584 27.646624,27.646624 0 0 1 8.53461,1.541493 65.883184,65.883184 0 0 1 7.90799,3.057922 l -0.82714,2.794741 a 42.748248,42.748248 0 0 0 -13.39721,-2.694481 8.2338315,8.2338315 0 0 0 -5.71481,2.155584 7.2187016,7.2187016 0 0 0 -2.36863,5.576949 8.5722081,8.5722081 0 0 0 1.25324,4.67461 12.996169,12.996169 0 0 0 3.45896,3.621884 48.350262,48.350262 0 0 0 4.73728,2.995259 q 2.61928,1.466299 5.18844,3.14565 a 36.344157,36.344157 0 0 1 4.71221,3.621883 14.788312,14.788312 0 0 1 3.44643,4.912728 16.292208,16.292208 0 0 1 1.32844,6.65474 11.479741,11.479741 0 0 1 -3.34617,8.534611 11.83065,11.83065 0 0 1 -8.77273,3.321104 41.043833,41.043833 0 0 1 -9.78786,-1.253247 19.863962,19.863962 0 0 1 -7.24376,-3.04539 z"
     id="path12" />
  <path
     style="fill:#efcd00;stroke-width:1.25324678;fill-opacity:1"
     inkscape:connector-curvature="0"
     class="cls-1"
     d="m 263.68181,14.761915 5.22604,0.350909 a 191.80942,191.80942 0 0 0 8.02078,24.438313 229.11858,229.11858 0 0 1 8.00824,23.586104 5.3513638,5.3513638 0 0 1 -0.68928,3.032858 2.0678572,2.0678572 0 0 1 -1.74202,1.015129 2.5064936,2.5064936 0 0 1 -1.71694,-0.726883 3.7597404,3.7597404 0 0 1 -1.0778,-2.067857 104.47065,104.47065 0 0 0 -4.03545,-12.256754 q -14.31208,-1.82974 -17.99662,-2.230779 a 83.604094,83.604094 0 0 0 -2.23078,8.146104 c -0.87728,3.759741 -1.56656,6.366494 -2.08039,7.807728 a 3.0453897,3.0453897 0 0 1 -2.36864,1.253247 3.1707144,3.1707144 0 0 1 -2.50649,-1.253247 4.9377924,4.9377924 0 0 1 -1.0402,-3.183247 q 2.23078,-8.146104 8.08344,-23.974611 5.85267,-15.828507 8.14611,-23.937014 z m 2.40623,7.043247 q -1.3911,8.434351 -7.72,24.726559 h 7.7952 q 5.27617,0 8.77272,0.338377 -7.10591,-15.377338 -8.84792,-25.064936 z"
     id="path14" />
  <path
     style="fill:#efcd00;stroke-width:1.25324678;fill-opacity:1"
     inkscape:connector-curvature="0"
     class="cls-1"
     d="m 290.91486,63.350293 0.90234,-48.237469 h 3.75974 l 22.82162,43.287144 v -5.501753 q 0,-21.054546 0.76448,-37.848053 l 3.9728,0.76448 q 0.77701,15.139221 1.25324,49.841625 a 7.82026,7.82026 0 0 1 -3.07045,0.626624 10.314221,10.314221 0 0 1 -4.95033,-1.403637 206.78572,206.78572 0 0 1 -10.50221,-19.162143 q -6.26623,-12.620195 -8.96071,-17.282274 0.0752,4.737273 0.10026,17.282274 0.0251,12.545 0.25065,19.024286 c -0.4261,1.441234 -1.25325,2.168117 -2.44383,2.168117 a 3.534156,3.534156 0 0 1 -2.40624,-1.052727 4.4364937,4.4364937 0 0 1 -1.49136,-2.506494 z"
     id="path16" />
  <path
     style="fill:#efcd00;stroke-width:1.25324678;fill-opacity:1"
     inkscape:connector-curvature="0"
     class="cls-1"
     d="m 332.42239,63.350293 0.90234,-48.237469 h 3.75974 l 22.79656,43.287144 v -5.501753 q 0,-21.054546 0.76448,-37.848053 l 3.97279,0.76448 q 0.77702,15.139221 1.25325,49.841625 a 7.7575977,7.7575977 0 0 1 -3.05792,0.626624 10.276624,10.276624 0 0 1 -4.95033,-1.403637 206.28442,206.28442 0 0 1 -10.56487,-19.162143 q -6.26623,-12.620195 -8.96071,-17.282274 0.0752,4.737273 0.11279,17.282274 0.0376,12.545 0.23812,19.024286 c -0.41357,1.441234 -1.25325,2.168117 -2.4313,2.168117 a 3.534156,3.534156 0 0 1 -2.40623,-1.052727 4.2986365,4.2986365 0 0 1 -1.42871,-2.506494 z"
     id="path18" />
  <path
     style="fill:#efcd00;stroke-width:1.25324678;fill-opacity:1"
     inkscape:connector-curvature="0"
     class="cls-1"
     d="m 400.31077,62.172241 0.70182,3.133117 q -2.73208,0 -9.86305,0.238117 c -4.76234,0.162922 -8.2213,0.25065 -10.35182,0.25065 a 33.098248,33.098248 0 0 1 -7.04325,-0.488767 q 0.70182,-7.66987 0.83968,-25.653962 0.13786,-17.984091 0.90234,-25.064936 2.36863,0.213052 12.53247,0.350909 a 120.78793,120.78793 0 0 1 13.34707,0.626624 l 0.76448,3.133117 c -2.09292,0.375974 -6.26623,0.81461 -12.53246,1.328441 -6.26624,0.513832 -9.57481,0.789546 -9.90065,0.827143 0,1.077793 0.15039,3.258442 0.31331,6.554481 0.16292,3.296039 0.27571,6.015585 0.31331,8.158637 q 2.36864,0.275714 8.6474,0.802078 l 7.94559,0.66422 0.70182,3.208312 q -14.72565,1.315909 -17.21962,1.391104 c 0,2.042792 0,5.150845 -0.10026,9.299091 -0.10026,4.148247 -0.11279,7.218702 -0.11279,9.173767 q 16.00396,1.466299 20.11461,2.067857 z"
     id="path20" />
  <path
     style="fill:#efcd00;stroke-width:1.25324678;fill-opacity:1"
     inkscape:connector-curvature="0"
     class="cls-1"
     d="m 429.68688,61.370163 0.97753,-3.872532 a 25.064936,25.064936 0 0 0 11.91838,3.270974 14.048897,14.048897 0 0 0 7.1435,-1.704416 5.9403898,5.9403898 0 0 0 2.9702,-5.564416 9.2364289,9.2364289 0 0 0 -2.50649,-6.266234 26.430975,26.430975 0 0 0 -6.06572,-5.012987 q -3.54669,-2.155584 -7.10591,-4.423961 a 23.423183,23.423183 0 0 1 -6.06571,-5.576948 11.93091,11.93091 0 0 1 -2.5065,-7.356559 13.434806,13.434806 0 0 1 3.55923,-9.023377 10.990974,10.990974 0 0 1 8.5722,-4.085584 27.646624,27.646624 0 0 1 8.53461,1.541493 65.883184,65.883184 0 0 1 7.90799,3.057922 l -0.82714,2.794741 a 42.748248,42.748248 0 0 0 -13.39721,-2.694481 8.2338315,8.2338315 0 0 0 -5.71481,2.155584 7.2187016,7.2187016 0 0 0 -2.36863,5.576949 8.5722081,8.5722081 0 0 0 1.31591,4.67461 12.996169,12.996169 0 0 0 3.45896,3.621884 48.350262,48.350262 0 0 0 4.73727,2.995259 q 2.61929,1.466299 5.18844,3.14565 a 36.344157,36.344157 0 0 1 4.71221,3.621883 14.788312,14.788312 0 0 1 3.44643,4.912728 16.292208,16.292208 0 0 1 1.32844,6.65474 11.479741,11.479741 0 0 1 -3.34617,8.534611 11.83065,11.83065 0 0 1 -8.77273,3.321104 41.043833,41.043833 0 0 1 -9.78785,-1.253247 19.863962,19.863962 0 0 1 -7.30643,-3.04539 z"
     id="path22" />
  <path
     style="fill:#efcd00;stroke-width:1.25324678;fill-opacity:1"
     inkscape:connector-curvature="0"
     class="cls-1"
     d="m 465.02844,41.95737 v -3.596818 q 0,-1.253247 0.11279,-3.75974 c 0.0627,-1.679351 0.16292,-3.007793 0.27571,-3.972793 0.1128,-0.965 0.28825,-2.243311 0.52637,-3.75974 a 17.244676,17.244676 0 0 1 0.90234,-3.75974 c 0.36344,-0.952468 0.80207,-2.03026 1.25324,-3.24591 a 8.7727276,8.7727276 0 0 1 1.84228,-2.920065 24.012209,24.012209 0 0 1 2.44383,-2.130519 9.0860393,9.0860393 0 0 1 3.13311,-1.491364 15.201884,15.201884 0 0 1 3.9728,-0.488766 15.79091,15.79091 0 0 1 7.51948,1.704415 14.111559,14.111559 0 0 1 5.01298,4.286104 20.753767,20.753767 0 0 1 2.895,6.341429 37.685131,37.685131 0 0 1 1.39111,7.181104 q 0.32584,3.421364 0.31331,7.519481 c 0,1.854805 0,3.534156 -0.10026,5.012987 -0.10026,1.478832 -0.21305,3.170715 -0.41357,5.012988 a 32.120715,32.120715 0 0 1 -0.91487,5.012987 26.50617,26.50617 0 0 1 -1.62922,4.361299 13.171624,13.171624 0 0 1 -2.5065,3.621883 10.953377,10.953377 0 0 1 -3.58428,2.331039 12.382078,12.382078 0 0 1 -4.81247,0.91487 23.160001,23.160001 0 0 1 -7.41922,-1.052727 13.585195,13.585195 0 0 1 -5.08818,-2.920065 13.134026,13.134026 0 0 1 -3.14565,-5.012987 29.388637,29.388637 0 0 1 -1.60416,-6.692338 70.557795,70.557795 0 0 1 -0.37597,-8.497014 z m 6.06571,-41.68298819 a 3.8850651,3.8850651 0 0 1 3.17072,1.62922089 5.8526626,5.8526626 0 0 1 1.25324,3.7597404 3.91013,3.91013 0 0 1 -0.72688,2.5064936 2.3937014,2.3937014 0 0 1 -1.99266,0.9399351 3.5842858,3.5842858 0 0 1 -3.09552,-1.604156 6.266234,6.266234 0 0 1 -1.15299,-3.7597404 4.1357144,4.1357144 0 0 1 0.66422,-2.5064936 2.1179871,2.1179871 0 0 1 1.82974,-0.96499999 z M 491.65993,42.508799 a 50.255197,50.255197 0 0 0 -0.52636,-7.105909 57.047794,57.047794 0 0 0 -1.75455,-7.945585 15.966364,15.966364 0 0 0 -3.87253,-6.942987 8.6975328,8.6975328 0 0 0 -6.36649,-2.681949 q -2.80728,0 -4.92526,3.759741 a 27.007469,27.007469 0 0 0 -3.04539,8.359156 45.944028,45.944028 0 0 0 -0.91487,8.772728 q 0,2.857402 0,4.361299 c 0,1.002597 0.11279,2.418766 0.25065,4.248506 a 29.714482,29.714482 0 0 0 0.58902,4.361299 27.446105,27.446105 0 0 0 1.25325,3.684546 9.211364,9.211364 0 0 0 1.99266,3.245909 10.414481,10.414481 0 0 0 3.00779,2.017727 10.101169,10.101169 0 0 0 4.16078,0.939935 q 5.08819,-0.263182 7.61974,-5.714805 A 31.531689,31.531689 0 0 0 491.6098,42.508799 Z M 486.00779,0.27438181 a 3.8850651,3.8850651 0 0 1 3.17071,1.62922089 5.8526626,5.8526626 0 0 1 1.25325,3.7597404 3.91013,3.91013 0 0 1 -0.72688,2.5064936 2.3937014,2.3937014 0 0 1 -1.99266,0.9399351 3.6093508,3.6093508 0 0 1 -3.09552,-1.604156 6.266234,6.266234 0 0 1 -1.15299,-3.7597404 4.2234417,4.2234417 0 0 1 0.66422,-2.5064936 2.1179871,2.1179871 0 0 1 1.82974,-0.96499999 z"
     id="path24" />
  <path
     style="fill:#efcd00;stroke-width:1.25324678;fill-opacity:1"
     inkscape:connector-curvature="0"
     class="cls-1"
     d="m 504.68117,15.325876 4.23597,0.413571 q 1.05273,10.677663 2.03026,43.863638 c 3.09552,-0.175454 7.04325,-0.275714 11.81812,-0.275714 4.77487,0 8.58474,-0.0752 11.46721,-0.213052 a 13.873442,13.873442 0 0 1 0.58902,3.346169 26.481105,26.481105 0 0 0 0.38851,3.208312 q -9.13617,-0.563961 -23.28533,-0.551429 h -7.74506 q 0.35091,-10.326753 0.3885,-27.571429 0.0376,-17.244676 0.1128,-22.220066 z"
     id="path26" />
  <path
     style="fill:#efcd00;stroke-width:1.25324678;fill-opacity:1"
     inkscape:connector-curvature="0"
     class="cls-1"
     d="m 566.77955,19.298668 -2.74461,3.208312 a 18.021689,18.021689 0 0 0 -10.7278,-4.047987 10.577403,10.577403 0 0 0 -6.00305,1.679351 11.504806,11.504806 0 0 0 -3.75974,4.035454 21.819027,21.819027 0 0 0 -2.06786,6.065715 47.272469,47.272469 0 0 0 -0.90233,6.266234 c -0.12533,1.767078 -0.17546,3.834935 -0.17546,6.203571 a 28.373508,28.373508 0 0 0 1.25325,7.907988 23.698897,23.698897 0 0 0 4.34876,8.271429 8.9356497,8.9356497 0 0 0 7.11845,3.822402 q 4.38636,0 13.44733,-4.599415 a 37.396885,37.396885 0 0 1 2.36864,4.398896 q -8.77273,6.053182 -15.67812,6.065714 a 13.472403,13.472403 0 0 1 -8.15863,-2.719545 19.199741,19.199741 0 0 1 -5.81507,-6.90539 40.868378,40.868378 0 0 1 -3.28351,-8.772728 35.617274,35.617274 0 0 1 -1.15298,-8.672467 55.042599,55.042599 0 0 1 0.70182,-8.772728 42.861041,42.861041 0 0 1 2.36863,-8.609806 15.928767,15.928767 0 0 1 5.01299,-6.968052 12.657793,12.657793 0 0 1 8.05838,-2.644351 27.22052,27.22052 0 0 1 8.35915,1.391104 28.924936,28.924936 0 0 1 7.43176,3.396299 z"
     id="path28" />
  <path
     style="fill:#efcd00;stroke-width:1.25324678;fill-opacity:1"
     inkscape:connector-curvature="0"
     class="cls-1"
     d="m 596.71961,15.200551 4.03546,-0.839675 a 263.08157,263.08157 0 0 1 1.56656,27.295715 q 0.32584,17.445196 0.66422,23.097339 c -0.41358,1.441233 -1.25325,2.168117 -2.4313,2.168117 a 3.534156,3.534156 0 0 1 -2.40624,-1.052728 4.3612989,4.3612989 0 0 1 -1.4287,-2.506493 c 0,-1.666819 0,-4.461559 0,-8.359156 V 41.217955 c -1.02766,0 -2.50649,0.150389 -4.29863,0.313311 -1.79215,0.162923 -3.52163,0.288247 -5.01299,0.388507 -1.49137,0.10026 -2.94513,0.137857 -4.29864,0.137857 -1.3535,0 -2.10545,0 -2.65688,-0.0752 q 0.13786,4.248507 0.48876,12.03117 c 0.22559,5.175909 0.38851,8.772727 0.48877,10.690195 -0.4261,1.441234 -1.25325,2.168117 -2.41877,2.168117 a 3.4965586,3.4965586 0 0 1 -2.38116,-1.052728 4.3988963,4.3988963 0 0 1 -1.40364,-2.506493 q 0.20052,-6.003052 0.37597,-23.285326 0.17546,-17.282273 0.65169,-25.716624 l 3.09552,0.701818 c 0,0.137857 0,0.350909 0,0.664221 0,0.313312 0,0.538896 0,0.726883 q 0.88981,17.144416 1.02766,21.468118 l 5.01299,-0.451169 5.95292,-0.563961 5.27617,-0.350909 c 0,0 0,-0.225585 0,-0.689286 0,-0.463701 0,-2.356104 0,-5.652143 0,-3.296039 0.10026,-8.334091 0.10026,-14.963767 z"
     id="path30" />
  <path
     style="fill:#ffffff;stroke-width:1.25324678;fill-opacity:1"
     inkscape:connector-curvature="0"
     class="cls-2"
     d="m 151.03999,91.047048 a 7.1936366,7.1936366 0 0 0 -5.91533,2.669415 11.429611,11.429611 0 0 0 -2.15558,7.356557 q 0,4.91273 2.08039,7.43176 a 7.2938964,7.2938964 0 0 0 5.99052,2.50649 15.69065,15.69065 0 0 0 3.2835,-0.33838 q 1.60416,-0.33837 3.30857,-0.86474 v 3.75974 a 20.051949,20.051949 0 0 1 -7.11844,1.19059 11.366948,11.366948 0 0 1 -8.99831,-3.55922 c -2.09292,-2.35611 -3.14565,-5.75241 -3.14565,-10.1513 a 16.430066,16.430066 0 0 1 1.52896,-7.281367 10.828052,10.828052 0 0 1 4.41143,-4.787403 13.334546,13.334546 0 0 1 6.76753,-1.654285 16.881234,16.881234 0 0 1 7.51948,1.704415 l -1.56656,3.634416 a 24.175131,24.175131 0 0 0 -2.8574,-1.11539 10.226494,10.226494 0 0 0 -3.13311,-0.501298 z"
     id="path32" />
  <path
     style="fill:#ffffff;stroke-width:1.25324678;fill-opacity:1"
     inkscape:connector-curvature="0"
     class="cls-2"
     d="m 167.00635,114.3825 h -4.29864 V 85.971398 h 4.29864 z"
     id="path34" />
  <path
     style="fill:#ffffff;stroke-width:1.25324678;fill-opacity:1"
     inkscape:connector-curvature="0"
     class="cls-2"
     d="m 181.79466,114.74594 a 9.7878575,9.7878575 0 0 1 -7.36909,-2.74461 10.477143,10.477143 0 0 1 -2.65688,-7.51948 11.479741,11.479741 0 0 1 2.50649,-7.782659 8.5220782,8.5220782 0 0 1 6.76753,-2.819806 8.3090263,8.3090263 0 0 1 6.26624,2.418767 9.2364289,9.2364289 0 0 1 2.3185,6.679808 v 2.3185 h -13.4348 a 6.6171431,6.6171431 0 0 0 1.59162,4.52422 5.5017535,5.5017535 0 0 0 4.21091,1.5791 15.565325,15.565325 0 0 0 3.33364,-0.33838 17.244676,17.244676 0 0 0 3.30857,-1.12792 v 3.49656 a 13.271884,13.271884 0 0 1 -3.17072,1.05272 19.011754,19.011754 0 0 1 -3.67201,0.26318 z m -0.78954,-17.670775 a 4.2986365,4.2986365 0 0 0 -3.27098,1.253246 6.1158444,6.1158444 0 0 0 -1.4663,3.759739 h 9.16124 a 5.5769483,5.5769483 0 0 0 -1.25325,-3.759739 4.1106495,4.1106495 0 0 0 -3.17071,-1.253246 z"
     id="path36" />
  <path
     style="fill:#ffffff;stroke-width:1.25324678;fill-opacity:1"
     inkscape:connector-curvature="0"
     class="cls-2"
     d="m 198.88895,114.3825 -7.65734,-20.2274 h 4.52422 l 4.09812,11.73039 a 22.408053,22.408053 0 0 1 1.25324,4.7874 h 0.15039 a 33.148378,33.148378 0 0 1 1.25325,-4.7874 l 4.11065,-11.73039 h 4.56182 l -7.70747,20.18981 z"
     id="path38" />
  <path
     style="fill:#ffffff;stroke-width:1.25324678;fill-opacity:1"
     inkscape:connector-curvature="0"
     class="cls-2"
     d="m 222.67557,114.74594 a 9.7502601,9.7502601 0 0 1 -7.35656,-2.74461 10.477143,10.477143 0 0 1 -2.65688,-7.51948 11.417078,11.417078 0 0 1 2.50649,-7.782659 8.5220782,8.5220782 0 0 1 6.76754,-2.819806 8.3090263,8.3090263 0 0 1 6.26623,2.418767 9.2990913,9.2990913 0 0 1 2.31851,6.679808 v 2.3185 h -13.44734 a 6.6171431,6.6171431 0 0 0 1.59162,4.52422 5.5518833,5.5518833 0 0 0 4.22344,1.5791 15.452533,15.452533 0 0 0 3.32111,-0.33838 17.344936,17.344936 0 0 0 3.3211,-1.12792 v 3.49656 a 13.359611,13.359611 0 0 1 -3.18324,1.05272 18.924027,18.924027 0 0 1 -3.67202,0.26318 z m -0.77701,-17.670775 a 4.2735716,4.2735716 0 0 0 -3.27097,1.253246 6.1910392,6.1910392 0 0 0 -1.47884,3.759739 h 9.16124 a 5.5769483,5.5769483 0 0 0 -1.25325,-3.759739 4.0855846,4.0855846 0 0 0 -3.15818,-1.253246 z"
     id="path40" />
  <path
     style="fill:#ffffff;stroke-width:1.25324678;fill-opacity:1"
     inkscape:connector-curvature="0"
     class="cls-2"
     d="m 245.57239,93.829255 a 10.239026,10.239026 0 0 1 2.14305,0.175455 l -0.4261,3.997857 a 7.82026,7.82026 0 0 0 -1.8924,-0.213052 5.464156,5.464156 0 0 0 -4.17332,1.679351 6.053182,6.053182 0 0 0 -1.60415,4.361294 v 10.55234 h -4.28611 V 94.1551 h 3.35871 l 0.56396,3.559221 h 0.18798 a 7.9455847,7.9455847 0 0 1 2.61929,-2.869936 6.266234,6.266234 0 0 1 3.50909,-1.01513 z"
     id="path42" />
  <path
     style="fill:#ffffff;stroke-width:1.25324678;fill-opacity:1"
     inkscape:connector-curvature="0"
     class="cls-2"
     d="m 259.84687,107.31419 a 7.5194808,7.5194808 0 0 1 1.16552,-4.17331 12.231689,12.231689 0 0 1 4.22344,-3.534157 15.414936,15.414936 0 0 1 -2.36863,-3.421364 7.043247,7.043247 0 0 1 -0.62663,-2.895 5.3388314,5.3388314 0 0 1 1.98013,-4.373831 8.1461042,8.1461042 0 0 1 5.31377,-1.604156 7.6448055,7.6448055 0 0 1 5.08818,1.554026 5.2385716,5.2385716 0 0 1 1.84227,4.210909 6.266234,6.266234 0 0 1 -1.25324,3.759741 13.259351,13.259351 0 0 1 -4.11065,3.396302 l 6.26623,6.10331 a 16.379936,16.379936 0 0 0 2.5065,-5.73987 h 4.42396 a 20.227403,20.227403 0 0 1 -4.08559,8.45941 l 5.48922,5.31377 h -5.52681 l -2.70702,-2.66942 a 13.196689,13.196689 0 0 1 -8.63487,3.02033 10.025974,10.025974 0 0 1 -6.59208,-1.99266 6.7174028,6.7174028 0 0 1 -2.3937,-5.41403 z m 9.19883,3.75974 a 8.6850003,8.6850003 0 0 0 5.71481,-1.95506 l -6.99312,-6.88033 a 9.0860393,9.0860393 0 0 0 -2.65688,2.31851 4.3487664,4.3487664 0 0 0 -0.73942,2.50649 3.7597404,3.7597404 0 0 0 1.25325,2.90753 4.9127275,4.9127275 0 0 0 3.42136,1.09033 z m -2.71954,-17.620649 a 4.0855846,4.0855846 0 0 0 0.61409,2.168117 12.707923,12.707923 0 0 0 1.70441,2.18065 10.577403,10.577403 0 0 0 2.895,-2.18065 3.5216235,3.5216235 0 0 0 0.82715,-2.280909 2.4187663,2.4187663 0 0 0 -0.78955,-1.892402 3.0203248,3.0203248 0 0 0 -2.10545,-0.714351 3.3837664,3.3837664 0 0 0 -2.29344,0.739415 2.5064936,2.5064936 0 0 0 -0.85221,1.967598 z"
     id="path44" />
  <path
     style="fill:#ffffff;stroke-width:1.25324678;fill-opacity:1"
     inkscape:connector-curvature="0"
     class="cls-2"
     d="m 307.35746,114.74594 a 9.7502601,9.7502601 0 0 1 -7.35656,-2.74461 10.477143,10.477143 0 0 1 -2.65688,-7.51948 11.417078,11.417078 0 0 1 2.50649,-7.782659 8.5220782,8.5220782 0 0 1 6.76753,-2.819806 8.3090263,8.3090263 0 0 1 6.26624,2.418767 9.2990913,9.2990913 0 0 1 2.3185,6.679808 v 2.3185 h -13.44733 a 6.6171431,6.6171431 0 0 0 1.59162,4.52422 5.5518833,5.5518833 0 0 0 4.22344,1.5791 15.452533,15.452533 0 0 0 3.3211,-0.33838 17.344936,17.344936 0 0 0 3.32111,-1.12792 v 3.49656 a 13.359611,13.359611 0 0 1 -3.18325,1.05272 18.924027,18.924027 0 0 1 -3.67201,0.26318 z m -0.77701,-17.670775 a 4.3237015,4.3237015 0 0 0 -3.28351,1.253246 6.266234,6.266234 0 0 0 -1.4663,3.759739 h 9.16123 a 5.5769483,5.5769483 0 0 0 -1.25324,-3.759739 4.0855846,4.0855846 0 0 0 -3.15818,-1.253246 z"
     id="path46" />
  <path
     style="fill:#ffffff;stroke-width:1.25324678;fill-opacity:1"
     inkscape:connector-curvature="0"
     class="cls-2"
     d="m 337.77376,114.3825 h -4.33624 v -12.41967 a 5.4265586,5.4265586 0 0 0 -0.95246,-3.484029 3.6344157,3.6344157 0 0 0 -2.98273,-1.152987 4.7623378,4.7623378 0 0 0 -3.97279,1.604156 8.8980523,8.8980523 0 0 0 -1.25325,5.38896 v 10.02598 h -4.2861 V 94.1551 h 3.42136 l 0.60156,2.64435 h 0.22558 a 5.9278574,5.9278574 0 0 1 2.58169,-2.230779 8.6850003,8.6850003 0 0 1 3.75974,-0.777013 q 7.26883,0 7.26883,7.381622 z"
     id="path48" />
  <path
     style="fill:#ffffff;stroke-width:1.25324678;fill-opacity:1"
     inkscape:connector-curvature="0"
     class="cls-2"
     d="m 350.98298,111.27445 a 10.552338,10.552338 0 0 0 3.14565,-0.48877 v 3.23338 a 9.0108445,9.0108445 0 0 1 -1.84227,0.51383 12.79565,12.79565 0 0 1 -2.33104,0.21305 q -6.09078,0 -6.09078,-6.42915 V 97.438606 h -2.75715 v -1.892402 l 2.95767,-1.579091 1.4663,-4.273572 h 2.64435 V 94.1551 h 5.7524 v 3.245909 h -5.7524 V 108.204 a 2.9827274,2.9827274 0 0 0 0.77701,2.29344 2.8323378,2.8323378 0 0 0 2.03026,0.77701 z"
     id="path50" />
  <path
     style="fill:#ffffff;stroke-width:1.25324678;fill-opacity:1"
     inkscape:connector-curvature="0"
     class="cls-2"
     d="m 372.08766,108.6301 a 5.276169,5.276169 0 0 1 -2.15559,4.53675 10.276624,10.276624 0 0 1 -6.16597,1.57909 14.550195,14.550195 0 0 1 -6.47929,-1.25324 v -3.67202 a 15.941299,15.941299 0 0 0 6.62968,1.64176 c 2.63181,0 3.96026,-0.80208 3.96026,-2.3937 a 1.9049351,1.9049351 0 0 0 -0.43864,-1.25325 5.4766885,5.4766885 0 0 0 -1.41617,-1.12792 26.318183,26.318183 0 0 0 -2.79474,-1.25325 12.958572,12.958572 0 0 1 -4.72474,-2.69448 5.0129872,5.0129872 0 0 1 -1.25325,-3.509091 4.5994158,4.5994158 0 0 1 2.09293,-4.022922 9.9257147,9.9257147 0 0 1 5.68974,-1.428701 16.041559,16.041559 0 0 1 6.72993,1.441233 l -1.3911,3.220845 a 15.114156,15.114156 0 0 0 -5.48922,-1.340974 c -2.26838,0 -3.3963,0.639155 -3.3963,1.93 a 1.9174676,1.9174676 0 0 0 0.8898,1.60416 19.575715,19.575715 0 0 0 3.86,1.8172 17.545455,17.545455 0 0 1 3.63442,1.76708 5.4390911,5.4390911 0 0 1 1.67935,1.85481 5.3262989,5.3262989 0 0 1 0.5389,2.55662 z"
     id="path52" />
  <path
     style="fill:#ffffff;stroke-width:1.25324678;fill-opacity:1"
     inkscape:connector-curvature="0"
     class="cls-2"
     d="m 386.83837,114.74594 a 7.1184418,7.1184418 0 0 1 -5.95292,-2.75714 h -0.25065 c 0.17545,1.70442 0.25065,2.73208 0.25065,3.09552 v 8.27143 h -4.28611 V 94.1551 h 3.4715 c 0.10026,0.375974 0.30078,1.253246 0.60156,2.69448 h 0.21305 a 6.7299353,6.7299353 0 0 1 6.02812,-3.057922 6.9931171,6.9931171 0 0 1 5.89026,2.732078 15.038962,15.038962 0 0 1 0,15.402404 7.068312,7.068312 0 0 1 -5.96546,2.8198 z m -1.04019,-17.420126 a 4.4615586,4.4615586 0 0 0 -3.75974,1.503896 7.7951951,7.7951951 0 0 0 -1.17806,4.77487 v 0.63916 a 9.4494809,9.4494809 0 0 0 1.17806,5.33883 4.3237015,4.3237015 0 0 0 3.75974,1.65428 3.8474677,3.8474677 0 0 0 3.43389,-1.82974 9.4244159,9.4244159 0 0 0 1.25325,-5.20097 9.186299,9.186299 0 0 0 -1.25325,-5.138313 4.0229222,4.0229222 0 0 0 -3.43389,-1.742013 z"
     id="path54" />
  <path
     style="fill:#ffffff;stroke-width:1.25324678;fill-opacity:1"
     inkscape:connector-curvature="0"
     class="cls-2"
     d="m 412.39207,114.3825 -0.85221,-2.8198 h -0.15038 a 8.3716886,8.3716886 0 0 1 -2.9326,2.50649 9.4244159,9.4244159 0 0 1 -3.75974,0.66422 6.4667535,6.4667535 0 0 1 -4.64955,-1.60415 6.0281171,6.0281171 0 0 1 -1.66682,-4.54929 5.3638963,5.3638963 0 0 1 2.31851,-4.71221 13.447338,13.447338 0 0 1 7.06831,-1.72948 l 3.48403,-0.11279 v -1.07779 a 4.0855846,4.0855846 0 0 0 -0.90234,-2.895003 3.7597404,3.7597404 0 0 0 -2.80727,-0.952467 9.7502601,9.7502601 0 0 0 -2.9702,0.451168 21.906754,21.906754 0 0 0 -2.74461,1.077793 l -1.3911,-3.070455 a 15.502663,15.502663 0 0 1 3.59682,-1.253247 17.144416,17.144416 0 0 1 3.69707,-0.438636 8.7727276,8.7727276 0 0 1 5.81507,1.679351 6.5670132,6.5670132 0 0 1 1.95506,5.263636 v 13.61026 z m -6.37902,-2.92006 a 5.3262989,5.3262989 0 0 0 3.75974,-1.25325 4.7623378,4.7623378 0 0 0 1.41617,-3.67201 v -1.74202 l -2.59423,0.10026 a 8.9481822,8.9481822 0 0 0 -4.41142,1.01513 3.0955196,3.0955196 0 0 0 -1.37858,2.76968 2.7446105,2.7446105 0 0 0 0.80208,2.09292 3.4965586,3.4965586 0 0 0 2.40624,0.68929 z"
     id="path56" />
  <path
     style="fill:#ffffff;stroke-width:1.25324678;fill-opacity:1"
     inkscape:connector-curvature="0"
     class="cls-2"
     d="m 438.92331,114.3825 h -4.31117 v -12.41967 a 5.4265586,5.4265586 0 0 0 -0.93994,-3.484029 3.6469482,3.6469482 0 0 0 -2.98272,-1.152987 4.7623378,4.7623378 0 0 0 -3.98533,1.604156 8.8980523,8.8980523 0 0 0 -1.25325,5.38896 v 10.02598 h -4.2861 V 94.1551 h 3.3587 l 0.61409,2.64435 h 0.21305 a 5.9027924,5.9027924 0 0 1 2.59423,-2.230779 8.6098055,8.6098055 0 0 1 3.75974,-0.777013 c 4.83753,0 7.26883,2.506494 7.26883,7.381622 z"
     id="path58" />
  <path
     style="fill:#ffffff;stroke-width:1.25324678;fill-opacity:1"
     inkscape:connector-curvature="0"
     class="cls-2"
     d="m 462.37156,114.3825 h -4.29864 v -12.41967 a 5.4265586,5.4265586 0 0 0 -0.93994,-3.484029 3.6594807,3.6594807 0 0 0 -2.99526,-1.152987 4.7623378,4.7623378 0 0 0 -3.97279,1.604156 8.8980523,8.8980523 0 0 0 -1.25325,5.38896 v 10.02598 h -4.2861 V 94.1551 h 3.3587 l 0.60156,2.64435 h 0.22558 a 5.9278574,5.9278574 0 0 1 2.58169,-2.230779 8.6975328,8.6975328 0 0 1 3.75974,-0.777013 q 7.2563,0 7.2563,7.381622 z"
     id="path60" />
  <path
     style="fill:#ffffff;stroke-width:1.25324678;fill-opacity:1"
     inkscape:connector-curvature="0"
     class="cls-2"
     d="m 475.56824,111.27445 a 10.552338,10.552338 0 0 0 3.14565,-0.48877 v 3.23338 a 9.0108445,9.0108445 0 0 1 -1.84227,0.51383 12.657793,12.657793 0 0 1 -2.31851,0.21305 q -6.10331,0 -6.10331,-6.42915 V 97.438606 h -2.75714 v -1.892402 l 2.95766,-1.579091 1.4663,-4.273572 h 2.64435 V 94.1551 h 5.7524 v 3.245909 h -5.7524 V 108.204 a 2.9827274,2.9827274 0 0 0 0.77701,2.29344 2.8323378,2.8323378 0 0 0 2.03026,0.77701 z"
     id="path62" />
  <path
     style="fill:#ffffff;stroke-width:1.25324678;fill-opacity:1"
     inkscape:connector-curvature="0"
     class="cls-2"
     d="m 496.74811,114.3825 h -4.29863 V 85.971398 h 4.29863 z"
     id="path64" />
  <path
     style="fill:#ffffff;stroke-width:1.25324678;fill-opacity:1"
     inkscape:connector-curvature="0"
     class="cls-2"
     d="m 511.53643,114.74594 a 9.7878575,9.7878575 0 0 1 -7.36909,-2.74461 10.477143,10.477143 0 0 1 -2.65689,-7.51948 11.479741,11.479741 0 0 1 2.5065,-7.782659 8.5220782,8.5220782 0 0 1 6.76753,-2.819806 8.3090263,8.3090263 0 0 1 6.26623,2.418767 9.2364289,9.2364289 0 0 1 2.31851,6.679808 v 2.3185 h -13.43481 a 6.6171431,6.6171431 0 0 0 1.59163,4.52422 5.5017535,5.5017535 0 0 0 4.21091,1.5791 15.565325,15.565325 0 0 0 3.33363,-0.33838 17.244676,17.244676 0 0 0 3.30857,-1.12792 v 3.49656 a 13.271884,13.271884 0 0 1 -3.17071,1.05272 19.011754,19.011754 0 0 1 -3.67201,0.26318 z m -0.78955,-17.670775 a 4.2986365,4.2986365 0 0 0 -3.27097,1.253246 6.1158444,6.1158444 0 0 0 -1.4663,3.759739 h 9.1487 a 5.5769483,5.5769483 0 0 0 -1.25325,-3.759739 4.1106495,4.1106495 0 0 0 -3.15818,-1.253246 z"
     id="path66" />
  <path
     style="fill:#ffffff;stroke-width:1.25324678;fill-opacity:1"
     inkscape:connector-curvature="0"
     class="cls-2"
     d="m 534.43325,93.829255 a 10.101169,10.101169 0 0 1 2.13052,0.175455 l -0.41358,3.997857 a 7.9957146,7.9957146 0 0 0 -1.90493,-0.213052 5.464156,5.464156 0 0 0 -4.17331,1.679351 6.053182,6.053182 0 0 0 -1.59163,4.361294 v 10.55234 h -4.2861 V 94.1551 h 3.3587 l 0.56396,3.559221 h 0.21305 a 8.0458445,8.0458445 0 0 1 2.61929,-2.869936 6.266234,6.266234 0 0 1 3.48403,-1.01513 z"
     id="path68" />
  <path
     style="fill:#ffffff;stroke-width:1.25324678;fill-opacity:1"
     inkscape:connector-curvature="0"
     class="cls-2"
     d="m 557.95669,114.3825 h -4.31117 v -12.41967 a 5.4265586,5.4265586 0 0 0 -0.93994,-3.484029 3.6344157,3.6344157 0 0 0 -2.98272,-1.152987 4.7372729,4.7372729 0 0 0 -3.9728,1.604156 8.8980523,8.8980523 0 0 0 -1.25324,5.38896 v 10.02598 h -4.27357 V 94.1551 h 3.3587 l 0.60156,2.64435 h 0.21305 a 6.0406496,6.0406496 0 0 1 2.59422,-2.230779 8.6098055,8.6098055 0 0 1 3.75974,-0.777013 q 7.26883,0 7.26883,7.381622 z"
     id="path70" />
  <path
     style="fill:#ffffff;stroke-width:1.25324678;fill-opacity:1"
     inkscape:connector-curvature="0"
     class="cls-2"
     d="m 572.56955,114.74594 a 9.7502601,9.7502601 0 0 1 -7.35656,-2.74461 10.477143,10.477143 0 0 1 -2.65689,-7.51948 11.417078,11.417078 0 0 1 2.5065,-7.782659 8.5220782,8.5220782 0 0 1 6.76753,-2.819806 8.3090263,8.3090263 0 0 1 6.26623,2.418767 9.2990913,9.2990913 0 0 1 2.31851,6.679808 v 2.3185 h -13.44734 a 6.6171431,6.6171431 0 0 0 1.59163,4.52422 5.5518833,5.5518833 0 0 0 4.22344,1.5791 15.452533,15.452533 0 0 0 3.3211,-0.33838 17.344936,17.344936 0 0 0 3.32111,-1.12792 v 3.49656 a 13.359611,13.359611 0 0 1 -3.18325,1.05272 18.924027,18.924027 0 0 1 -3.67201,0.26318 z m -0.77702,-17.670775 a 4.3237015,4.3237015 0 0 0 -3.2835,1.253246 6.266234,6.266234 0 0 0 -1.4663,3.759739 h 9.16123 a 5.5769483,5.5769483 0 0 0 -1.25324,-3.759739 4.0855846,4.0855846 0 0 0 -3.15819,-1.253246 z"
     id="path72" />
  <path
     style="fill:#ffffff;stroke-width:1.25324678;fill-opacity:1"
     inkscape:connector-curvature="0"
     class="cls-2"
     d="m 602.98585,114.3825 h -4.29864 v -12.41967 a 5.4265586,5.4265586 0 0 0 -0.95247,-3.484029 3.6218833,3.6218833 0 0 0 -2.98273,-1.152987 4.7623378,4.7623378 0 0 0 -3.97279,1.604156 8.8980523,8.8980523 0 0 0 -1.25324,5.38896 v 10.02598 h -4.28611 V 94.1551 h 3.3587 l 0.60156,2.64435 h 0.22559 a 5.9278574,5.9278574 0 0 1 2.58168,-2.230779 8.6975328,8.6975328 0 0 1 3.75974,-0.777013 q 7.2563,0 7.2563,7.381622 z"
     id="path74" />
  <path
     class="cls-2"
     d="M 61.739998,8.0968578e-7 A 61.73,61.73 0 1 0 123.46,61.720001 61.72,61.72 0 0 0 61.739998,8.0968578e-7 Z M 110.88,79.620001 c -1.07,2.94 -14.300002,1.87 -17.780002,1.53 a 37.16,37.16 0 0 1 -2.39,3.41 c 1.49,3.13 7,15.22 4.64,17.229999 -2.36,2.01 -13.3,-5.519999 -16.15,-7.549999 a 37.3,37.3 0 0 1 -3.79,1.77 c -0.28,3.5 -1.52,16.679999 -4.59,17.219999 -3.07,0.54 -8.75,-11.4 -10.2,-14.599999 a 34.69,34.69 0 0 1 -4.18,-0.37 c -2,2.889999 -9.65,13.679999 -12.59,12.609999 -2.94,-1.07 -1.87,-14.249999 -1.53,-17.759999 a 36.38,36.38 0 0 1 -3.44,-2.4 c -3.18,1.51 -15.2,7 -17.2,4.63 -2,-2.37 5.52,-13.3 7.55,-16.15 a 36.19,36.19 0 0 1 -1.77,-3.79 c -3.5,-0.28 -16.68,-1.52 -17.23,-4.6 -0.5499996,-3.08 11.47,-8.77 14.63,-10.18 a 36.71,36.71 0 0 1 0.37,-4.16 c -2.87,-2 -13.71,-9.65 -12.64,-12.59 1.07,-2.94 14.22,-1.88 17.74,-1.54 a 34.61,34.61 0 0 1 2.43,-3.42 c -1.51,-3.16 -7,-15.21 -4.64,-17.22 2.36,-2.01 13.36,5.56 16.17,7.57 a 39.17,39.17 0 0 1 3.77,-1.76 c 0.27,-3.45 1.51,-16.7 4.59,-17.25 3.08,-0.5500002 8.76,11.43 10.21,14.62 a 36.79,36.79 0 0 1 4.18,0.34 c 2,-2.9 9.65,-13.67 12.58,-12.6 2.93,1.07 1.87,14.22 1.54,17.74 a 36.26,36.26 0 0 1 3.42,2.42 c 3.16,-1.5 15.21,-7 17.220002,-4.63 2.01,2.37 -5.560002,13.35 -7.570002,16.17 a 36.83,36.83 0 0 1 1.75,3.77 c 3.46,0.27 16.710002,1.51 17.260002,4.59 0.55,3.08 -11.44,8.76 -14.620002,10.21 a 34.82,34.82 0 0 1 -0.35,4.18 c 2.890002,1.97 13.680002,9.62 12.610002,12.56 z"
     id="path98"
     inkscape:connector-curvature="0"
     style="fill:#2858a5;fill-opacity:0" />
  <g
     id="g910"
     transform="matrix(1.1746219,0,0,1.1746219,-10.780288,-10.777725)">
    <path
       style="fill:#00a9d4"
       inkscape:connector-curvature="0"
       id="path76"
       d="m 76.769998,80.160001 c 0,-0.21 0.08,-0.42 0.13,-0.64 -0.05,0.22 -0.1,0.43 -0.13,0.64 z"
       class="cls-2" />
    <path
       style="fill:#00a9d4"
       inkscape:connector-curvature="0"
       id="path78"
       d="m 76.609998,82.100001 c 0,-0.17 0,-0.34 0,-0.51 0.01,0.17 0,0.34 0,0.51 z"
       class="cls-2" />
    <path
       style="fill:#00a9d4"
       inkscape:connector-curvature="0"
       id="path80"
       d="m 76.779998,83.970001 -0.06,-0.4 z"
       class="cls-2" />
    <path
       style="fill:#00a9d4"
       inkscape:connector-curvature="0"
       id="path82"
       d="m 76.649998,81.140001 c 0,-0.19 0,-0.38 0.06,-0.56 -0.02,0.18 -0.05,0.37 -0.06,0.56 z"
       class="cls-2" />
    <path
       style="fill:#00a9d4"
       inkscape:connector-curvature="0"
       id="path84"
       d="m 76.659998,83.050001 a 3.55,3.55 0 0 1 0,-0.46 3.55,3.55 0 0 0 0,0.46 z"
       class="cls-2" />
    <path
       style="fill:#00a9d4"
       inkscape:connector-curvature="0"
       id="path86"
       d="m 76.969998,84.850001 c 0,-0.11 0,-0.21 -0.08,-0.32 0.03,0.09 0.06,0.21 0.08,0.32 z"
       class="cls-2" />
    <path
       style="fill:#00a9d4"
       inkscape:connector-curvature="0"
       id="path88"
       d="m 26.939998,49.400001 a 10.66,10.66 0 0 1 1.6,-0.1 10.66,10.66 0 0 0 -1.6,0.1 z"
       class="cls-2" />
    <path
       style="fill:#00a9d4"
       inkscape:connector-curvature="0"
       id="path90"
       d="m 82.769998,92.050001 c -0.25,-0.12 -0.48,-0.26 -0.72,-0.4 0.23,0.14 0.47,0.28 0.72,0.4 z"
       class="cls-2" />
    <path
       style="fill:#00a9d4"
       inkscape:connector-curvature="0"
       id="path92"
       d="m 77.219998,85.670001 -0.07,-0.21 z"
       class="cls-2" />
    <path
       style="fill:#00a9d4"
       inkscape:connector-curvature="0"
       id="path94"
       d="m 93.239998,72.250001 a 6,6 0 0 1 0.54,0.33 6,6 0 0 0 -0.54,-0.33 z"
       class="cls-2" />
    <path
       style="fill:#00a9d4"
       inkscape:connector-curvature="0"
       id="path96"
       d="m 76.979998,79.190001 a 9.16,9.16 0 0 1 0.3,-1 9.16,9.16 0 0 0 -0.3,1 z"
       class="cls-2" />
    <path
       style="fill:#00a9d4"
       inkscape:connector-curvature="0"
       id="path100"
       d="m 95.549998,73.950001 c 0.26,0.25 0.51,0.49 0.74,0.75 a 10.46,10.46 0 0 0 -0.74,-0.75 z"
       class="cls-2" />
    <path
       style="fill:#00a9d4"
       inkscape:connector-curvature="0"
       id="path102"
       d="m 91.649998,71.510001 a 11.87,11.87 0 0 1 1.14,0.5 11.87,11.87 0 0 0 -1.14,-0.5 z"
       class="cls-2" />
    <path
       style="fill:#de6411"
       inkscape:connector-curvature="0"
       id="path104"
       d="m 81.159998,30.320001 c 0.33,-3.52 1.39,-16.67 -1.54,-17.74 -2.93,-1.07 -10.58,9.7 -12.58,12.6 a 37.25,37.25 0 0 1 14.12,5.14 z"
       class="cls-1" />
    <path
       style="fill:#de6411"
       inkscape:connector-curvature="0"
       id="path106"
       d="m 62.859998,24.840001 c -1.45,-3.19 -7.13,-15.1600002 -10.21,-14.62 -3.08,0.54 -4.32,13.8 -4.59,17.25 a 36.75,36.75 0 0 1 14.8,-2.63 z"
       class="cls-1" />
    <path
       style="fill:#de6411"
       inkscape:connector-curvature="0"
       id="path108"
       d="m 44.289998,29.230001 c -2.81,-2.01 -13.77,-9.61 -16.13,-7.61 -2.36,2 3.13,14.06 4.64,17.22 a 36.81,36.81 0 0 1 11.49,-9.61 z"
       class="cls-1" />
    <path
       style="fill:#de6411"
       inkscape:connector-curvature="0"
       id="path110"
       d="m 29.229998,79.190001 c -2,2.85 -9.57,13.75 -7.55,16.15 2.02,2.4 14,-3.12 17.2,-4.63 a 36.77,36.77 0 0 1 -9.65,-11.52 z"
       class="cls-1" />
    <path
       style="fill:#de6411"
       inkscape:connector-curvature="0"
       id="path112"
       d="m 42.319998,93.110001 c -0.34,3.51 -1.4,16.689999 1.53,17.749999 2.93,1.06 10.6,-9.72 12.59,-12.609999 a 36.22,36.22 0 0 1 -14.12,-5.14 z"
       class="cls-1" />
    <path
       style="fill:#de6411"
       inkscape:connector-curvature="0"
       id="path114"
       d="m 60.619998,98.620001 c 1.45,3.199999 7.12,15.149999 10.2,14.599999 3.08,-0.55 4.31,-13.719999 4.59,-17.219999 a 36.73,36.73 0 0 1 -14.79,2.62 z"
       class="cls-1" />
    <path
       style="fill:#de6411"
       inkscape:connector-curvature="0"
       id="path116"
       d="m 98.619998,62.850001 c 3.180002,-1.45 15.160002,-7.13 14.620002,-10.21 -0.54,-3.08 -13.800002,-4.32 -17.260002,-4.59 a 36.76,36.76 0 0 1 2.64,14.8 z"
       class="cls-1" />
    <path
       style="fill:#de6411"
       inkscape:connector-curvature="0"
       id="path118"
       d="m 94.229998,44.280001 c 2,-2.82 9.580002,-13.77 7.570002,-16.17 -2.010002,-2.4 -14.060002,3.13 -17.220002,4.63 a 36.85,36.85 0 0 1 9.65,11.54 z"
       class="cls-1" />
    <path
       style="fill:#eecc00"
       inkscape:connector-curvature="0"
       id="path120"
       d="m 95.979998,48.050001 a 36.87,36.87 0 0 0 -11.4,-15.31 36.26,36.26 0 0 0 -3.42,-2.42 37.25,37.25 0 0 0 -14.12,-5.14 37.6,37.6 0 0 0 -19,2.29 39.17,39.17 0 0 0 -3.77,1.76 36.81,36.81 0 0 0 -11.53,9.65 34.61,34.61 0 0 0 -2.43,3.42 37.17,37.17 0 0 0 -3.29,6.8 c 0,0.1 -0.06,0.2 -0.1,0.3 a 10.66,10.66 0 0 1 1.6,-0.1 h 0.15 a 11.19,11.19 0 1 1 -1.04,22.32 9.93,9.93 0 0 1 -1.51,-0.2 37.21,37.21 0 0 0 1.34,4 36.19,36.19 0 0 0 1.77,3.79 36.77,36.77 0 0 0 9.65,11.52 36.38,36.38 0 0 0 3.44,2.4 36.22,36.22 0 0 0 14.12,5.14 34.69,34.69 0 0 0 4.18,0.37 36.73,36.73 0 0 0 14.79,-2.62 37.3,37.3 0 0 0 3.79,-1.77 36.22,36.22 0 0 0 3.57,-2.18 c -0.25,-0.12 -0.49,-0.26 -0.72,-0.4 a 11.22,11.22 0 0 1 -4.83,-6 l -0.07,-0.21 c -0.07,-0.2 -0.12,-0.4 -0.18,-0.61 -0.06,-0.21 0,-0.21 -0.08,-0.32 -0.08,-0.11 -0.08,-0.37 -0.11,-0.56 l -0.06,-0.4 a 4.6,4.6 0 0 1 -0.06,-0.52 3.55,3.55 0 0 1 0,-0.46 c 0,-0.16 0,-0.33 0,-0.49 0,-0.16 0,-0.34 0,-0.51 0,-0.17 0,-0.3 0,-0.45 0,-0.15 0,-0.38 0.06,-0.56 0.06,-0.18 0,-0.28 0.06,-0.42 0.06,-0.14 0.08,-0.42 0.13,-0.64 0.05,-0.22 0.05,-0.22 0.08,-0.33 a 9.16,9.16 0 0 1 0.3,-1 11.21,11.21 0 0 1 14.37,-6.7 11.87,11.87 0 0 1 1.14,0.5 l 0.45,0.24 a 6,6 0 0 1 0.54,0.33 10.85,10.85 0 0 1 1.77,1.37 10.46,10.46 0 0 1 0.74,0.75 l 0.14,-0.35 a 36.52,36.52 0 0 0 1.84,-7.32 34.82,34.82 0 0 0 0.35,-4.18 36.76,36.76 0 0 0 -2.65,-14.78 z m -52.31,1.43 a 0.53,0.53 0 0 1 -0.7,0.27 0.51,0.51 0 0 1 -0.27,-0.69 5.87,5.87 0 0 1 0.66,-1 l -1.2,-0.92 a 0.53,0.53 0 0 1 -0.1,-0.74 0.54,0.54 0 0 1 0.74,-0.11 l 1.36,1 a 5.19,5.19 0 0 1 5.32,-0.6 c 4.88,1.77 3.68,6.08 3.67,6.13 a 0.53,0.53 0 0 1 -0.51,0.38 h -0.14 a 0.53,0.53 0 0 1 -0.36,-0.66 c 0,-0.14 0.92,-3.41 -3,-4.84 -3.92,-1.43 -5.42,1.65 -5.47,1.78 z m 28.87,25.35 a 1.65,1.65 0 0 1 -1.75,1.06 c -1.61,2.65 -5.42,7.48 -11.76,7.48 a 14.75,14.75 0 0 1 -5,-0.94 c -9.39,-3.4 -9.23,-12 -8.65,-15.79 a 1.64,1.64 0 0 1 -0.73,-2 1.67,1.67 0 1 1 1.86,2.19 c -0.57,3.51 -0.76,11.33 7.93,14.47 8.69,3.14 13.49,-2.87 15.33,-5.94 a 1.66,1.66 0 1 1 2.79,-0.55 z m 13.23,-11.82 v 0 l -1.48,-0.08 a 5.52,5.52 0 0 1 -0.13,1.21 0.53,0.53 0 0 1 -0.51,0.38 0.32,0.32 0 0 1 -0.14,0 0.54,0.54 0 0 1 -0.37,-0.65 3.9,3.9 0 0 0 0.08,-1.47 v 0 0 c -0.15,-1.1 -0.82,-2.52 -3.08,-3.34 -4,-1.43 -5.36,1.64 -5.42,1.77 a 0.54230987,0.54230987 0 1 1 -1,-0.42 c 0,0 1.87,-4.1 6.74,-2.34 a 5.18,5.18 0 0 1 3.7,3.86 l 1.64,0.09 a 0.53,0.53 0 0 1 0,1.05 z"
       class="cls-3" />
    <path
       style="fill:#de6411"
       inkscape:connector-curvature="0"
       id="path122"
       d="m 82.769998,92.050001 a 36.22,36.22 0 0 1 -3.57,2.18 c 2.85,2 13.75,9.559999 16.15,7.549999 2.4,-2.009999 -3.15,-14.099999 -4.64,-17.229999 a 36.63,36.63 0 0 1 -7.94,7.5 z"
       class="cls-1" />
    <path
       style="fill:#de6411"
       inkscape:connector-curvature="0"
       id="path124"
       d="m 96.289998,74.700001 a 36.78,36.78 0 0 1 -3.19,6.44 c 3.48,0.34 16.710002,1.41 17.780002,-1.53 1.07,-2.94 -9.7,-10.58 -12.610002,-12.58 a 36.52,36.52 0 0 1 -1.84,7.32 z"
       class="cls-1" />
    <path
       style="fill:#f6a723"
       inkscape:connector-curvature="0"
       id="path126"
       d="m 95.549998,73.950001 a 10.85,10.85 0 0 0 -1.77,-1.37 6,6 0 0 0 -0.54,-0.33 l -0.45,-0.24 a 11.87,11.87 0 0 0 -1.14,-0.5 11.21,11.21 0 0 0 -14.37,6.7 9.16,9.16 0 0 0 -0.3,1 c 0,0.11 0,0.22 -0.08,0.33 -0.08,0.11 -0.1,0.43 -0.13,0.64 -0.03,0.21 0,0.28 -0.06,0.42 -0.06,0.14 0,0.37 -0.06,0.56 -0.06,0.19 0,0.3 0,0.45 0,0.15 0,0.34 0,0.51 0,0.17 0,0.33 0,0.49 a 3.55,3.55 0 0 0 0,0.46 4.6,4.6 0 0 0 0.06,0.52 l 0.06,0.4 c 0,0.19 0.07,0.37 0.11,0.56 0.04,0.19 0.06,0.21 0.08,0.32 0.02,0.11 0.11,0.41 0.18,0.61 l 0.07,0.21 a 11.22,11.22 0 0 0 4.83,6 c 0.24,0.14 0.47,0.28 0.72,0.4 a 36.63,36.63 0 0 0 7.94,-7.5 37.16,37.16 0 0 0 2.39,-3.41 36.78,36.78 0 0 0 3.19,-6.44 c -0.22,-0.3 -0.47,-0.54 -0.73,-0.79 z"
       class="cls-4" />
    <path
       style="fill:#de6411"
       inkscape:connector-curvature="0"
       id="path128"
       d="m 24.859998,60.620001 c -3.16,1.44 -15.1699996,7.13 -14.63,10.21 0.54,3.08 13.73,4.32 17.23,4.6 a 37.21,37.21 0 0 1 -1.34,-4 36.69,36.69 0 0 1 -1.26,-10.81 z"
       class="cls-1" />
    <path
       style="fill:#de6411"
       inkscape:connector-curvature="0"
       id="path130"
       d="m 27.039998,49.100001 a 37.17,37.17 0 0 1 3.29,-6.8 c -3.52,-0.34 -16.67,-1.39 -17.74,1.54 -1.07,2.93 9.77,10.62 12.64,12.59 a 37.12,37.12 0 0 1 1.71,-7 c 0.04,-0.13 0.07,-0.23 0.1,-0.33 z"
       class="cls-1" />
    <path
       style="fill:#f6a723"
       inkscape:connector-curvature="0"
       id="path132"
       d="m 27.629998,71.620001 a 11.19,11.19 0 1 0 1.06,-22.33 h -0.15 a 10.66,10.66 0 0 0 -1.6,0.1 37.12,37.12 0 0 0 -1.71,7 37,37 0 0 0 0.89,15 9.93,9.93 0 0 0 1.51,0.23 z"
       class="cls-4" />
    <path
       style="fill:#43434a"
       inkscape:connector-curvature="0"
       id="path134"
       d="m 71.539998,72.690001 a 1.66,1.66 0 0 0 -1.79,2.69 c -1.84,3.07 -6.7,9.06 -15.33,5.94 -8.63,-3.12 -8.5,-11 -7.93,-14.47 a 1.65,1.65 0 0 0 1.28,-1.05 1.6772,1.6772 0 1 0 -3.14,-1.18 1.64,1.64 0 0 0 0.73,2 c -0.58,3.81 -0.74,12.39 8.65,15.79 a 14.75,14.75 0 0 0 5,0.94 c 6.34,0 10.15,-4.83 11.76,-7.48 a 1.65,1.65 0 0 0 1.75,-1.06 1.68,1.68 0 0 0 -0.98,-2.12 z"
       class="cls-5" />
    <path
       style="fill:#43434a"
       inkscape:connector-curvature="0"
       id="path136"
       d="m 49.089998,47.710001 c 3.93,1.43 3,4.7 3,4.84 a 0.53,0.53 0 0 0 0.36,0.66 h 0.14 a 0.53,0.53 0 0 0 0.51,-0.38 c 0,-0.05 1.21,-4.36 -3.67,-6.13 a 5.19,5.19 0 0 0 -5.32,0.6 l -1.36,-1 a 0.54,0.54 0 0 0 -0.74,0.11 0.53,0.53 0 0 0 0.1,0.74 l 1.24,0.92 a 5.87,5.87 0 0 0 -0.66,1 0.51,0.51 0 0 0 0.27,0.69 0.53,0.53 0 0 0 0.7,-0.27 c 0.06,-0.14 1.5,-3.21 5.43,-1.78 z"
       class="cls-5" />
    <path
       style="fill:#43434a"
       inkscape:connector-curvature="0"
       id="path138"
       d="m 85.799998,61.960001 -1.64,-0.09 a 5.18,5.18 0 0 0 -3.7,-3.86 c -4.87,-1.76 -6.72,2.3 -6.74,2.34 a 0.54230987,0.54230987 0 1 0 1,0.42 c 0.06,-0.13 1.46,-3.2 5.42,-1.77 2.26,0.82 2.93,2.24 3.08,3.34 v 0 0 a 3.9,3.9 0 0 1 -0.08,1.47 0.54,0.54 0 0 0 0.37,0.65 0.32,0.32 0 0 0 0.14,0 0.53,0.53 0 0 0 0.51,-0.38 5.52,5.52 0 0 0 0.13,-1.21 l 1.48,0.08 v 0 a 0.53,0.53 0 0 0 0,-1.05 z"
       class="cls-5" />
  </g>
</svg>
