<svg id="Ebene_1" data-name="Ebene 1" xmlns="http://www.w3.org/2000/svg" viewBox="0 0 510.24 510.24"><defs><style>.cls-1{fill:#00a9d4;}.cls-2{fill:#fff;}.cls-3{fill:#43434a;}.cls-4{fill:#f6a723;}</style></defs><title>Woelkchen</title><path class="cls-1" d="M297.17,165.72c-140.9,0-255.12,114.22-255.12,255.11S156.27,676,297.17,676,552.28,561.73,552.28,420.83,438.06,165.72,297.17,165.72ZM436.86,556.6H169.2a85,85,0,0,1,0-169.92,101.61,101.61,0,0,1,200.86-21.74,48.78,48.78,0,0,1,66.8,45.2h0a73.23,73.23,0,0,1,0,146.46Z" transform="translate(-42.05 -165.72)"/><path class="cls-2" d="M436.86,410.14h0a48.78,48.78,0,0,0-66.8-45.2A101.61,101.61,0,0,0,169.2,386.68a85,85,0,0,0,0,169.92H436.86a73.23,73.23,0,0,0,0-146.46Z" transform="translate(-42.05 -165.72)"/><path class="cls-3" d="M317.79,497.89a2.37,2.37,0,0,0-2.63,2.14c0,.41-1.29,10-18,10h0c-16.61,0-17.9-9.57-17.95-10a2.4,2.4,0,0,0-4.77.44c0,.14,1.5,14.38,22.72,14.38h.05c21.26,0,22.75-14.24,22.77-14.38A2.4,2.4,0,0,0,317.79,497.89Z" transform="translate(-42.05 -165.72)"/><path class="cls-3" d="M249.24,444.84a14.68,14.68,0,0,0,3.37-7.19,2.39,2.39,0,0,0-2.16-2.58,2.42,2.42,0,0,0-2.61,2.13c-.05.42-1.29,10-17.94,10h-.06c-16.71,0-18-9.62-18-10a2.4,2.4,0,1,0-4.78.42,14.88,14.88,0,0,0,3.88,7.71l-5.54,7.16a2.4,2.4,0,0,0,.44,3.36,2.35,2.35,0,0,0,1.46.5,2.41,2.41,0,0,0,1.9-.92l5.45-7.06a22.27,22.27,0,0,0,4.54,2.07L216.48,458a2.4,2.4,0,0,0,1.44,3.07,2.3,2.3,0,0,0,.81.14,2.41,2.41,0,0,0,2.26-1.59l2.9-8.1a39.14,39.14,0,0,0,4,.38v9a2.4,2.4,0,0,0,4.79,0v-9c1.41-.1,2.74-.24,4-.45l3,8.2a2.39,2.39,0,0,0,2.25,1.59,2.11,2.11,0,0,0,.81-.15A2.39,2.39,0,0,0,244.1,458l-2.82-7.84a20.76,20.76,0,0,0,4.35-2.18l5.75,7.44a2.38,2.38,0,0,0,1.9.92,2.35,2.35,0,0,0,1.46-.5,2.39,2.39,0,0,0,.43-3.36Z" transform="translate(-42.05 -165.72)"/><path class="cls-3" d="M388.94,452.46,383,444.78a14.5,14.5,0,0,0,3.36-7.19,2.4,2.4,0,0,0-4.77-.44c0,.41-1.28,10-17.93,10h-.07c-16.69,0-18-9.62-18-10A2.35,2.35,0,0,0,343,435a2.41,2.41,0,0,0-2.18,2.6,14.88,14.88,0,0,0,3.88,7.71l-5.53,7.16a2.39,2.39,0,0,0,1.89,3.86,2.35,2.35,0,0,0,1.89-.92l5.46-7.07a21.51,21.51,0,0,0,4.54,2.08L350.24,458a2.4,2.4,0,0,0,1.45,3.07,2.54,2.54,0,0,0,.81.13,2.4,2.4,0,0,0,2.25-1.58l2.91-8.11a39.42,39.42,0,0,0,4,.38v9a2.4,2.4,0,1,0,4.79,0v-9a37.72,37.72,0,0,0,4-.44l2.94,8.21a2.42,2.42,0,0,0,2.26,1.58,2.54,2.54,0,0,0,.81-.13,2.4,2.4,0,0,0,1.45-3.07l-2.82-7.85A20.77,20.77,0,0,0,379.4,448l5.75,7.45a2.4,2.4,0,0,0,3.79-2.94Z" transform="translate(-42.05 -165.72)"/><circle class="cls-4" cx="144.35" cy="324.78" r="24.53"/><circle class="cls-4" cx="365.89" cy="324.78" r="24.53"/></svg>